<svg width="140" height="104" viewBox="0 0 140 104" fill="none" xmlns="http://www.w3.org/2000/svg">
<path d="M95.68 89.472C92.928 87.68 91.072 86.112 90.112 84.768C89.152 83.488 89.536 82.304 91.264 81.216C91.648 80.96 92.256 81.184 93.088 81.888C93.984 82.528 94.72 83.136 95.296 83.712C96.576 84.864 98.144 85.568 100 85.824C101.92 86.144 104.064 85.984 106.432 85.344C109.12 84.512 111.456 83.36 113.44 81.888C115.488 80.352 117.408 78.496 119.2 76.32C120.544 74.592 121.472 72.736 121.984 70.752C122.496 68.704 122.688 66.816 122.56 65.088C122.496 63.36 122.144 62.144 121.504 61.44C119.904 59.2 117.664 57.664 114.784 56.832C111.968 55.936 108.64 56 104.8 57.024C104.352 57.088 103.68 57.216 102.784 57.408C101.888 57.6 101.088 57.792 100.384 57.984C99.68 58.112 99.296 58.176 99.232 58.176C98.784 58.304 98.432 58.464 98.176 58.656C97.92 58.784 97.6 59.264 97.216 60.096C96.896 60.864 96.384 62.272 95.68 64.32C94.976 66.304 93.92 69.248 92.512 73.152C91.168 77.056 90.08 79.84 89.248 81.504C88.48 83.104 87.776 83.84 87.136 83.712C86.56 83.52 85.824 82.816 84.928 81.6C84.416 80.704 84.096 79.84 83.968 79.008C83.84 78.112 84.096 77.088 84.736 75.936C85.056 75.36 85.312 74.848 85.504 74.4C85.696 73.888 85.952 73.024 86.272 71.808C86.592 70.848 87.2 69.184 88.096 66.816C89.056 64.384 90.176 61.568 91.456 58.368C92.736 55.104 94.08 51.744 95.488 48.288C96.896 44.832 98.24 41.568 99.52 38.496C100.864 35.424 101.984 32.832 102.88 30.72C103.776 28.736 104.32 27.296 104.512 26.4C104.704 25.504 104.64 25.024 104.32 24.96C104.32 24.64 104.224 24.352 104.032 24.096C103.84 23.776 103.776 23.488 103.84 23.232C103.84 22.976 104.256 22.624 105.088 22.176C105.984 21.728 106.944 21.312 107.968 20.928C109.056 20.544 109.888 20.416 110.464 20.544C110.784 20.544 111.168 20.544 111.616 20.544C112.064 20.48 112.288 20.32 112.288 20.064C112.48 20.064 113.088 20 114.112 19.872C115.136 19.744 116.256 19.744 117.472 19.872C121.76 20.256 125.088 21.504 127.456 23.616C129.824 25.664 130.976 28.48 130.912 32.064C130.848 33.152 130.272 34.624 129.184 36.48C128.16 38.336 126.88 40.192 125.344 42.048C123.872 43.904 122.432 45.472 121.024 46.752C120.192 47.456 119.296 48.192 118.336 48.96C117.44 49.664 116.64 50.272 115.936 50.784C115.296 51.232 114.976 51.456 114.976 51.456C114.976 51.456 115.232 51.552 115.744 51.744C116.256 51.936 116.8 52.128 117.376 52.32C120.32 53.408 122.752 54.784 124.672 56.448C126.592 58.112 127.904 60.416 128.608 63.36C128.864 64.32 128.864 65.504 128.608 66.912C128.416 68.32 128.128 69.728 127.744 71.136C127.36 72.48 126.944 73.632 126.496 74.592C126.048 75.04 125.696 75.52 125.44 76.032C125.184 76.48 125.056 76.704 125.056 76.704C125.056 76.832 124.8 77.344 124.288 78.24C123.776 79.072 123.168 80 122.464 81.024C121.76 82.048 121.088 82.944 120.448 83.712C119.808 84.224 119.04 84.832 118.144 85.536C117.312 86.24 116.352 86.912 115.264 87.552C114.24 88.192 113.12 88.736 111.904 89.184C110.112 89.952 108.16 90.464 106.048 90.72C104 91.04 102.048 91.072 100.192 90.816C98.336 90.624 96.832 90.176 95.68 89.472ZM100.384 52.512C100.384 52.512 100.96 52.416 102.112 52.224C103.328 51.968 104.64 51.712 106.048 51.456C107.456 51.136 108.48 50.848 109.12 50.592C109.44 50.4 109.888 50.144 110.464 49.824C111.104 49.504 111.744 49.024 112.384 48.384C113.28 47.552 114.4 46.368 115.744 44.832C117.152 43.232 118.528 41.568 119.872 39.84C121.216 38.048 122.24 36.448 122.944 35.04C124.416 32.736 125.216 31.04 125.344 29.952C125.472 28.8 125.12 27.808 124.288 26.976C123.712 26.272 122.72 25.824 121.312 25.632C119.968 25.376 118.528 25.312 116.992 25.44C115.456 25.504 114.144 25.696 113.056 26.016C112.224 26.272 111.584 26.592 111.136 26.976C110.688 27.296 110.464 27.808 110.464 28.512C110.464 29.088 110.272 29.664 109.888 30.24C109.568 30.752 109.248 31.168 108.928 31.488C108.864 31.936 108.704 32.352 108.448 32.736C108.192 33.056 108.064 33.216 108.064 33.216C108.064 33.472 107.616 34.528 106.72 36.384C105.824 38.24 104.928 40.384 104.032 42.816C102.88 45.568 101.984 47.808 101.344 49.536C100.704 51.2 100.384 52.192 100.384 52.512Z" fill="#D3C9B2"/>
<path d="M63.456 88.608C63.392 88.992 63.008 89.088 62.304 88.896C61.664 88.768 61.088 88.32 60.576 87.552C60.064 86.336 59.808 85.216 59.808 84.192C59.808 83.168 59.84 81.632 59.904 79.584C60.288 77.344 60.8 74.432 61.44 70.848C62.144 67.2 62.944 63.136 63.84 58.656C64.8 54.112 65.824 49.376 66.912 44.448C67.68 41.888 68.288 39.552 68.736 37.44C69.248 35.264 69.632 33.504 69.888 32.16C70.144 30.816 70.272 30.144 70.272 30.144C70.272 29.952 70.08 30.048 69.696 30.432C69.376 30.752 69.056 31.136 68.736 31.584C68.416 32.032 68.288 32.384 68.352 32.64C68.352 32.64 68.128 32.96 67.68 33.6C67.232 34.24 66.656 35.104 65.952 36.192C65.312 36.832 64.544 38.112 63.648 40.032C62.752 41.952 61.76 43.744 60.672 45.408C59.648 47.328 58.56 49.408 57.408 51.648C56.256 53.824 55.232 55.648 54.336 57.12C53.76 57.952 53.184 58.912 52.608 60C52.032 61.088 51.68 61.792 51.552 62.112C51.296 62.816 50.848 63.68 50.208 64.704C49.568 65.664 48.864 66.624 48.096 67.584C47.712 68.16 47.328 68.768 46.944 69.408C46.56 69.984 46.24 70.496 45.984 70.944C45.792 71.328 45.696 71.52 45.696 71.52C45.696 71.712 45.376 72.288 44.736 73.248C44.16 74.208 43.424 75.264 42.528 76.416C41.696 77.568 40.896 78.56 40.128 79.392C37.888 81.76 36.096 83.168 34.752 83.616C33.408 84 31.904 83.424 30.24 81.888C29.408 80.864 28.8 79.712 28.416 78.432C28.032 77.088 27.872 75.456 27.936 73.536C28 71.552 28.224 69.088 28.608 66.144C29.056 63.904 29.472 61.664 29.856 59.424C30.24 57.12 30.592 54.976 30.912 52.992C31.296 50.944 31.616 49.216 31.872 47.808C32.192 46.4 32.448 45.472 32.64 45.024C32.768 43.744 32.736 43.04 32.544 42.912C32.352 42.784 31.968 43.168 31.392 44.064C31.136 44.512 30.464 45.632 29.376 47.424C28.288 49.152 27.008 51.296 25.536 53.856C24.128 56.416 22.72 59.2 21.312 62.208C18.688 67.072 16.512 71.104 14.784 74.304C13.12 77.44 11.776 79.936 10.752 81.792C9.792 83.648 9.088 85.024 8.64 85.92C8.192 86.816 7.872 87.424 7.68 87.744C7.488 88.064 7.328 88.288 7.2 88.416C6.624 88.416 6.016 88.16 5.376 87.648C4.8 87.2 4.192 86.656 3.552 86.016C3.36 85.568 3.264 85.12 3.264 84.672C3.328 84.224 3.552 83.584 3.936 82.752C4.32 81.856 4.896 80.512 5.664 78.72C6.496 77.056 7.264 75.616 7.968 74.4C8.672 73.12 9.216 72.352 9.6 72.096C9.92 71.584 10.208 71.072 10.464 70.56C10.72 70.048 10.88 69.44 10.944 68.736C11.264 68.352 11.744 67.584 12.384 66.432C13.088 65.216 13.792 63.904 14.496 62.496C15.008 61.664 15.648 60.576 16.416 59.232C17.248 57.888 18.112 56.416 19.008 54.816C19.904 53.152 20.704 51.584 21.408 50.112C24.352 45.056 26.848 40.8 28.896 37.344C30.944 33.824 32.48 31.584 33.504 30.624C33.824 30.304 34.144 29.856 34.464 29.28C34.848 28.704 35.04 28.192 35.04 27.744C35.04 26.4 35.296 25.184 35.808 24.096C36.384 22.944 36.96 22.432 37.536 22.56C38.176 22.56 38.752 22.624 39.264 22.752C39.776 22.88 40.32 23.296 40.896 24C41.408 24.768 41.856 25.536 42.24 26.304C42.624 27.072 42.592 28.608 42.144 30.912C42.144 31.808 42.048 32.832 41.856 33.984C41.664 35.072 41.472 36.096 41.28 37.056C41.152 37.952 41.056 38.656 40.992 39.168C40.16 41.664 39.392 44.48 38.688 47.616C37.984 50.688 37.344 53.824 36.768 57.024C36.192 60.16 35.712 63.104 35.328 65.856C34.944 68.544 34.688 70.784 34.56 72.576C34.496 74.304 34.56 75.296 34.752 75.552C35.2 75.808 35.584 75.84 35.904 75.648C36.224 75.456 36.768 74.624 37.536 73.152C37.984 72.384 38.592 71.456 39.36 70.368C40.192 69.216 40.992 68.16 41.76 67.2C42.272 66.304 43.072 64.96 44.16 63.168C45.248 61.376 46.624 59.072 48.288 56.256C50.016 53.44 52.064 50.016 54.432 45.984C56.864 41.888 59.616 37.152 62.688 31.776C64.16 29.536 65.536 27.36 66.816 25.248C68.16 23.072 69.248 21.664 70.08 21.024C70.976 20.192 71.904 20 72.864 20.448C73.824 20.832 74.656 21.664 75.36 22.944C76.128 24.224 76.544 25.824 76.608 27.744C76.672 28.64 76.544 30.08 76.224 32.064C75.968 34.048 75.552 36.32 74.976 38.88C74.4 41.376 73.664 43.968 72.768 46.656C72.576 47.744 72.256 49.12 71.808 50.784C71.424 52.384 70.976 54.048 70.464 55.776C69.952 57.504 69.44 59.136 68.928 60.672C68.608 62.784 68.224 64.864 67.776 66.912C67.392 68.96 67.264 70.336 67.392 71.04C66.816 72.064 66.432 73.536 66.24 75.456C66.048 77.376 65.952 79.36 65.952 81.408C65.696 83.904 65.504 85.664 65.376 86.688C65.248 87.712 65.024 88.192 64.704 88.128C63.872 87.872 63.456 88.032 63.456 88.608Z" fill="#39221E"/>
</svg>
