<svg width="335" height="176" viewBox="0 0 335 176" fill="none" xmlns="http://www.w3.org/2000/svg">
<path d="M127.176 158.304C125.192 158.176 123.432 157.568 121.896 156.48C120.424 155.392 118.856 154.272 117.192 153.12C116.104 152.032 115.24 150.88 114.6 149.664C113.96 148.384 113.448 146.72 113.064 144.672C112.808 143.456 112.808 141.92 113.064 140.064C113.32 138.208 113.736 136.352 114.312 134.496C114.888 132.576 115.432 131.04 115.944 129.888C116.712 128.096 117.672 126.176 118.824 124.128C120.04 122.016 121.224 120.032 122.376 118.176C123.592 116.256 124.552 114.72 125.256 113.568C125.704 113.12 125.896 112.896 125.832 112.896C125.832 112.832 125.832 112.8 125.832 112.8C125.832 112.48 126.152 111.68 126.792 110.4C127.496 109.056 128.104 107.872 128.616 106.848C129.576 105.824 130.12 104.992 130.248 104.352C130.376 103.712 130.28 103.2 129.96 102.816C129.832 102.56 130.056 102.112 130.632 101.472C131.208 100.832 132.072 100.096 133.224 99.264C134.376 98.432 135.688 97.6 137.16 96.768C138.696 95.552 140.168 94.912 141.576 94.848C143.048 94.72 143.912 95.008 144.168 95.712C144.168 95.904 144.52 95.968 145.224 95.904C145.992 95.776 146.856 95.616 147.816 95.424C148.84 95.168 149.736 94.976 150.504 94.848C150.824 94.464 151.56 94.176 152.712 93.984C153.928 93.728 155.336 93.504 156.936 93.312C157.768 93.376 158.568 93.408 159.336 93.408C160.168 93.344 160.84 93.28 161.352 93.216C161.928 93.152 162.216 93.12 162.216 93.12C162.664 92.992 163.176 93.056 163.752 93.312C164.392 93.568 164.968 94.272 165.48 95.424C165.928 96.576 165.768 97.44 165 98.016C164.296 98.592 162.632 99.04 160.008 99.36C158.088 99.616 156.424 99.84 155.016 100.032C153.608 100.16 152.136 100.352 150.6 100.608C149.064 100.8 147.176 101.152 144.936 101.664C143.336 101.984 142.024 102.368 141 102.816C139.976 103.2 139.08 103.808 138.312 104.64C137.544 105.408 136.68 106.528 135.72 108C135.272 108.32 134.696 109.152 133.992 110.496C133.288 111.84 132.584 113.184 131.88 114.528C130.088 117.024 128.52 119.2 127.176 121.056C125.896 122.848 125.384 123.904 125.64 124.224C125.64 124.224 125.992 124.32 126.696 124.512C127.4 124.704 127.88 124.8 128.136 124.8C128.776 124.48 129.544 124.256 130.44 124.128C131.4 124 132.168 123.872 132.744 123.744C136.712 122.72 139.816 121.92 142.056 121.344C144.36 120.768 146.088 120.352 147.24 120.096C148.456 119.776 149.384 119.584 150.024 119.52C150.92 118.816 151.784 118.688 152.616 119.136C153.512 119.584 154.216 120.288 154.728 121.248C155.048 121.952 155.048 122.56 154.728 123.072C154.472 123.584 153.672 124.096 152.328 124.608C151.048 125.12 149.128 125.728 146.568 126.432C144.008 127.136 140.648 128.064 136.488 129.216C132.968 130.24 129.96 130.848 127.464 131.04C124.968 131.232 123.784 130.688 123.912 129.408C123.464 129.152 122.952 129.472 122.376 130.368C121.864 131.2 121.352 132.352 120.84 133.824C120.328 135.296 119.88 136.864 119.496 138.528C119.176 140.192 118.952 141.76 118.824 143.232C118.76 144.64 118.856 145.696 119.112 146.4C119.624 147.872 120.296 149.056 121.128 149.952C121.96 150.784 123.464 151.52 125.64 152.16C126.92 152.224 128.168 152.32 129.384 152.448C130.6 152.576 131.976 152.32 133.512 151.68C137.288 151.04 140.264 150.368 142.44 149.664C144.616 148.96 145.864 148.48 146.184 148.224C146.696 147.968 147.016 147.84 147.144 147.84C147.336 147.776 147.592 147.744 147.912 147.744C147.72 148.064 147.784 148.096 148.104 147.84C148.488 147.52 149 147.04 149.64 146.4C150.344 145.76 151.272 145.152 152.424 144.576C153.576 144 154.6 143.552 155.496 143.232C156.456 142.912 156.968 142.912 157.032 143.232C157.416 143.872 157.352 144.768 156.84 145.92C156.328 147.008 155.4 148.224 154.056 149.568C152.712 150.848 150.984 152.096 148.872 153.312C145.48 155.104 141.8 156.352 137.832 157.056C133.864 157.824 130.312 158.24 127.176 158.304ZM172.443 150.144C171.995 149.76 171.419 148.608 170.715 146.688C170.075 144.768 169.435 142.528 168.795 139.968C168.219 137.344 167.739 134.944 167.355 132.768C167.099 131.488 166.811 130.4 166.491 129.504C166.235 128.608 166.011 127.872 165.819 127.296C165.499 126.144 165.403 125.184 165.531 124.416C165.659 123.648 166.107 123.04 166.875 122.592C167.195 122.4 167.579 122.272 168.027 122.208C168.539 122.08 168.923 122.048 169.179 122.112C169.947 122.368 170.651 123.552 171.291 125.664C171.931 127.712 172.507 130.432 173.019 133.824C173.275 135.808 173.595 137.504 173.979 138.912C174.363 140.32 174.555 141.152 174.555 141.408C174.811 141.92 175.099 142.432 175.419 142.944C175.803 143.392 176.251 143.36 176.763 142.848C177.019 142.592 177.531 142.016 178.299 141.12C179.131 140.224 179.931 139.264 180.699 138.24C182.043 136.448 183.099 134.976 183.867 133.824C184.699 132.672 185.627 131.456 186.651 130.176C187.099 129.536 187.611 128.832 188.187 128.064C188.763 127.296 189.339 126.592 189.915 125.952C190.555 125.248 191.131 124.832 191.643 124.704C193.179 124.448 194.011 124.768 194.139 125.664C194.267 126.56 193.691 127.904 192.411 129.696C191.899 130.464 191.483 131.2 191.163 131.904C190.907 132.544 190.651 132.992 190.395 133.248C189.883 134.272 189.083 135.584 187.995 137.184C186.907 138.72 185.851 140.16 184.827 141.504C183.803 142.784 183.099 143.616 182.715 144C182.459 144.256 181.883 144.736 180.987 145.44C180.155 146.144 179.355 147.04 178.587 148.128C177.051 149.6 175.835 150.496 174.939 150.816C174.043 151.136 173.211 150.912 172.443 150.144ZM213.152 152.64C211.808 153.792 210.24 154.464 208.448 154.656C206.72 154.848 205.024 154.592 203.36 153.888C201.696 153.12 200.32 151.968 199.232 150.432C198.144 149.024 197.44 147.424 197.12 145.632C196.8 143.776 196.768 141.376 197.024 138.432C197.216 135.936 198.016 133.44 199.424 130.944C200.832 128.384 202.528 126.112 204.512 124.128C206.56 122.144 208.576 120.768 210.56 120C211.52 119.36 212.32 119.072 212.96 119.136C213.664 119.136 214.72 119.2 216.128 119.328C217.6 119.52 218.688 119.808 219.392 120.192C220.16 120.576 220.768 121.088 221.216 121.728C222.176 122.688 222.816 123.648 223.136 124.608C223.456 125.504 223.616 126.4 223.616 127.296C223.36 128.704 222.4 130.432 220.736 132.48C219.136 134.464 217.024 136.096 214.4 137.376C212.992 137.824 211.456 138.016 209.792 137.952C208.128 137.888 206.752 137.472 205.664 136.704C204.448 136.192 203.648 136.288 203.264 136.992C202.88 137.632 202.528 139.232 202.208 141.792C201.952 144.224 202.144 146.016 202.784 147.168C203.424 148.256 204.288 148.896 205.376 149.088C206.656 149.344 207.648 149.536 208.352 149.664C209.12 149.728 210.048 149.44 211.136 148.8C212.16 148.16 212.8 147.808 213.056 147.744C213.312 147.616 213.504 147.488 213.632 147.36C213.824 147.168 214.24 146.752 214.88 146.112C215.328 145.664 215.68 145.344 215.936 145.152C216.192 144.896 216.48 144.768 216.8 144.768C217.12 144.768 217.408 144.928 217.664 145.248C217.92 145.504 218.176 145.696 218.432 145.824C219.072 145.824 219.2 146.208 218.816 146.976C218.496 147.744 217.824 148.672 216.8 149.76C215.776 150.784 214.56 151.744 213.152 152.64ZM213.056 132.288C213.76 131.968 214.496 131.52 215.264 130.944C216.032 130.304 216.672 129.632 217.184 128.928C217.76 128.16 218.048 127.52 218.048 127.008C218.048 126.112 217.632 125.376 216.8 124.8C215.968 124.16 214.72 124.064 213.056 124.512C212.352 124.704 211.552 125.184 210.656 125.952C209.76 126.656 208.896 127.456 208.064 128.352C207.296 129.248 206.656 130.048 206.144 130.752C205.696 131.456 205.536 131.872 205.664 132C205.856 132.32 206.4 132.576 207.296 132.768C208.192 132.896 209.184 132.928 210.272 132.864C211.424 132.8 212.352 132.608 213.056 132.288ZM257.235 154.848C256.595 154.848 255.923 154.496 255.219 153.792C254.579 153.088 254.003 152.224 253.491 151.2C253.043 150.112 252.819 149.088 252.819 148.128C252.819 147.168 253.043 145.376 253.491 142.752C254.003 140.128 254.611 137.472 255.315 134.784C255.827 133.12 255.987 132.16 255.795 131.904C255.603 131.648 254.739 132 253.203 132.96C252.307 133.408 251.507 133.888 250.803 134.4C250.099 134.848 249.491 135.36 248.979 135.936C248.659 136.192 248.179 136.608 247.539 137.184C246.899 137.76 246.227 138.304 245.523 138.816C244.691 139.456 243.635 140.352 242.355 141.504C241.075 142.656 239.795 143.808 238.515 144.96C237.299 146.112 236.371 147.008 235.731 147.648C235.603 147.904 235.411 148.128 235.155 148.32C234.899 148.512 234.611 148.64 234.291 148.704C233.971 148.704 233.619 148.64 233.235 148.512C232.531 148.32 231.859 147.904 231.219 147.264C230.643 146.624 230.355 145.888 230.355 145.056C230.355 144.416 230.611 143.328 231.123 141.792C231.635 140.192 232.307 138.272 233.139 136.032C234.035 133.792 235.059 131.424 236.211 128.928C236.403 128.608 236.563 128.224 236.691 127.776C236.819 127.264 236.915 126.72 236.979 126.144C237.107 125.568 237.171 125.024 237.171 124.512C237.171 124.192 237.203 123.872 237.267 123.552C237.395 123.168 237.523 122.816 237.651 122.496C237.843 122.112 238.003 121.856 238.131 121.728C238.387 121.216 238.835 121.088 239.475 121.344C240.115 121.536 240.659 121.984 241.107 122.688C242.067 123.584 242.547 124.704 242.547 126.048C242.611 127.392 242.291 129.056 241.587 131.04C241.331 131.488 241.107 131.936 240.915 132.384C240.787 132.768 240.659 133.12 240.531 133.44C240.403 133.696 240.307 133.92 240.243 134.112C240.179 134.24 240.147 134.304 240.147 134.304C240.403 134.304 240.979 134.016 241.875 133.44C242.771 132.864 243.827 132.224 245.043 131.52C246.003 130.816 246.835 130.176 247.539 129.6C248.307 128.96 248.947 128.48 249.459 128.16C249.971 127.776 250.291 127.584 250.419 127.584C250.675 127.584 250.995 127.488 251.379 127.296C251.763 127.104 252.083 126.88 252.339 126.624C252.595 126.368 252.787 126.24 252.915 126.24C253.107 126.176 253.203 126.144 253.203 126.144C253.203 126.144 253.331 126.144 253.587 126.144C253.843 126.08 254.099 125.92 254.355 125.664C254.867 125.28 255.539 125.184 256.371 125.376C257.203 125.504 257.971 125.824 258.675 126.336C259.379 126.848 259.731 127.424 259.731 128.064C259.731 128.32 259.795 128.544 259.923 128.736C260.115 128.864 260.211 128.928 260.211 128.928C260.723 128.928 261.043 129.728 261.171 131.328C261.363 132.928 261.203 134.464 260.691 135.936C260.691 136.896 260.499 138.048 260.115 139.392C259.795 140.736 259.507 142.016 259.251 143.232C258.739 144.832 258.387 146.24 258.195 147.456C258.003 148.672 257.971 149.696 258.099 150.528C258.227 151.36 258.451 152.032 258.771 152.544C259.027 152.992 259.027 153.504 258.771 154.08C258.515 154.592 258.003 154.848 257.235 154.848ZM279.334 160.8C277.222 160.48 275.782 159.68 275.014 158.4C274.31 157.184 274.15 155.296 274.534 152.736C274.918 151.52 275.142 150.432 275.206 149.472C275.334 148.448 275.622 147.808 276.07 147.552C276.07 147.552 276.102 147.456 276.166 147.264C276.294 147.072 276.262 146.88 276.07 146.688C276.07 145.856 276.358 144.704 276.934 143.232C277.062 142.848 277.222 142.4 277.414 141.888C277.67 141.312 277.798 141.024 277.798 141.024C277.478 140.512 277.478 140.096 277.798 139.776C278.118 139.456 278.438 139.168 278.758 138.912C279.142 138.592 279.174 138.24 278.854 137.856C278.726 137.6 278.886 137.024 279.334 136.128C279.782 135.168 280.294 134.176 280.87 133.152C281.446 132.128 281.83 131.328 282.022 130.752C282.022 130.624 282.182 130.176 282.502 129.408C282.822 128.64 283.206 127.744 283.654 126.72C284.102 125.696 284.518 124.768 284.902 123.936C285.35 123.104 285.638 122.56 285.766 122.304C286.406 121.984 286.15 121.76 284.998 121.632C283.846 121.504 282.63 121.472 281.35 121.536C279.366 121.472 277.766 121.376 276.55 121.248C275.398 121.12 274.438 120.832 273.67 120.384C272.902 119.488 272.614 118.848 272.806 118.464C273.062 118.016 273.83 117.76 275.11 117.696C275.942 117.632 276.582 117.6 277.03 117.6C277.542 117.6 278.182 117.568 278.95 117.504C279.782 117.376 281.062 117.216 282.79 117.024L287.686 116.64L287.974 115.008C288.486 114.176 288.902 113.44 289.222 112.8C289.606 112.096 289.926 111.392 290.182 110.688C290.438 109.984 290.63 109.248 290.758 108.48C290.758 108.48 291.046 107.968 291.622 106.944C292.198 105.856 292.55 104.736 292.678 103.584C293.446 102.304 294.118 101.152 294.694 100.128C295.27 99.04 295.622 98.368 295.75 98.112C296.454 97.536 296.934 97.248 297.19 97.248C297.51 97.248 298.15 97.568 299.11 98.208C299.686 98.528 300.198 98.912 300.646 99.36C301.094 99.808 301.382 100.288 301.51 100.8C301.638 101.248 301.446 101.696 300.934 102.144C300.806 102.4 300.614 102.88 300.358 103.584C300.102 104.224 299.91 104.768 299.782 105.216C299.398 105.664 298.918 106.4 298.342 107.424C297.83 108.384 297.478 109.376 297.286 110.4C296.774 111.488 296.294 112.48 295.846 113.376C295.398 114.208 295.046 114.624 294.79 114.624C294.918 115.264 295.302 115.584 295.942 115.584C296.582 115.52 297.638 115.456 299.11 115.392C300.326 115.264 301.158 115.136 301.606 115.008C302.118 114.816 302.694 114.88 303.334 115.2C303.654 115.648 303.91 116.16 304.102 116.736C304.294 117.312 304.326 117.856 304.198 118.368C304.134 118.816 303.878 119.136 303.43 119.328C303.11 119.328 302.438 119.52 301.414 119.904C300.454 120.224 299.238 120.416 297.766 120.48L292.678 120.96L291.046 124.224C290.598 125.056 290.214 125.824 289.894 126.528C289.574 127.168 289.35 127.552 289.222 127.68C289.222 128.064 288.998 128.64 288.55 129.408C288.166 130.176 287.75 131.008 287.302 131.904C286.918 132.992 286.47 133.984 285.958 134.88C285.51 135.776 285.286 136.224 285.286 136.224C285.03 136.224 284.902 136.416 284.902 136.8C285.222 137.568 285.126 138.144 284.614 138.528C284.294 138.72 284.006 139.008 283.75 139.392C283.558 139.712 283.462 139.872 283.462 139.872C283.718 140.128 283.75 140.448 283.558 140.832C283.43 141.216 283.238 141.632 282.982 142.08C282.982 142.592 282.822 143.328 282.502 144.288C282.246 145.248 281.958 146.144 281.638 146.976C281.702 148.128 281.766 148.864 281.83 149.184C281.894 149.504 282.054 149.632 282.31 149.568C282.63 149.632 282.918 149.632 283.174 149.568C283.43 149.504 283.686 149.472 283.942 149.472C284.838 149.088 284.358 151.328 282.502 156.192C281.478 157.792 280.774 158.944 280.39 159.648C280.006 160.416 279.654 160.8 279.334 160.8ZM308.331 156.384C307.115 155.872 305.963 155.2 304.875 154.368C303.787 153.472 303.083 152.736 302.763 152.16C302.763 151.584 302.859 151.2 303.051 151.008C303.243 150.752 303.787 150.656 304.683 150.72C305.643 150.72 307.179 150.848 309.291 151.104C310.059 151.104 311.019 151.04 312.171 150.912C313.323 150.784 314.379 150.592 315.339 150.336C316.363 150.08 316.939 149.76 317.067 149.376C317.387 149.376 317.451 149.28 317.259 149.088C317.067 148.832 316.843 148.576 316.587 148.32C316.331 148.32 316.043 148.224 315.723 148.032C315.403 147.776 315.115 147.648 314.859 147.648C314.859 147.328 314.539 146.976 313.899 146.592C313.323 146.144 312.715 145.792 312.075 145.536C310.667 144.384 309.451 143.36 308.427 142.464C307.403 141.504 307.019 140.864 307.275 140.544C307.275 140.288 307.275 140.16 307.275 140.16C307.275 140.096 307.275 140.064 307.275 140.064C306.827 140.064 306.315 139.424 305.739 138.144C305.227 136.864 304.971 135.712 304.971 134.688C304.971 133.92 305.195 132.96 305.643 131.808C306.091 130.592 306.699 129.344 307.467 128.064C308.235 126.784 309.035 125.728 309.867 124.896C311.019 123.808 312.459 122.656 314.187 121.44C315.915 120.16 317.611 119.04 319.275 118.08C321.003 117.056 322.443 116.384 323.595 116.064C324.747 115.616 325.803 115.392 326.763 115.392C327.787 115.392 328.683 115.616 329.451 116.064C330.091 116.384 330.667 116.864 331.179 117.504C331.755 118.08 332.235 118.688 332.619 119.328C333.067 119.904 333.355 120.416 333.483 120.864C333.483 121.632 333.419 122.496 333.291 123.456C333.163 124.352 332.971 125.152 332.715 125.856C332.523 126.56 332.203 126.912 331.755 126.912C331.755 126.912 331.659 126.944 331.467 127.008C331.339 127.008 331.275 127.168 331.275 127.488C331.275 128.128 330.795 128.864 329.835 129.696C328.619 130.528 327.563 131.04 326.667 131.232C325.771 131.36 325.227 131.008 325.035 130.176C324.843 129.92 324.715 129.696 324.651 129.504C324.587 129.312 324.427 129.216 324.171 129.216C324.171 129.216 324.075 129.12 323.883 128.928C323.691 128.736 323.595 128.416 323.595 127.968C323.595 127.712 323.691 127.488 323.883 127.296C324.075 127.04 324.171 126.912 324.171 126.912C324.491 126.912 324.907 126.56 325.419 125.856C325.931 125.088 326.379 124.288 326.763 123.456C327.211 122.56 327.435 121.952 327.435 121.632C327.435 121.248 327.371 121.024 327.243 120.96C327.179 120.896 326.891 120.864 326.379 120.864C325.483 121.248 324.395 121.76 323.115 122.4C321.835 123.04 320.619 123.68 319.467 124.32C318.379 124.896 317.579 125.44 317.067 125.952C316.811 126.4 316.651 126.688 316.587 126.816C316.523 126.88 316.363 126.912 316.107 126.912C316.107 126.656 315.883 126.784 315.435 127.296C315.051 127.744 314.539 128.384 313.899 129.216C313.323 130.048 312.747 130.88 312.171 131.712C311.659 132.48 311.275 133.056 311.019 133.44C310.891 133.568 310.731 133.952 310.539 134.592C310.411 135.168 310.347 135.712 310.347 136.224C310.091 136.992 310.123 137.536 310.443 137.856C310.763 138.112 311.467 138.688 312.555 139.584C314.795 141.248 316.555 142.624 317.835 143.712C319.115 144.8 320.075 145.696 320.715 146.4C321.355 147.104 321.739 147.744 321.867 148.32C323.019 150.24 323.371 151.712 322.923 152.736C322.475 153.76 321.387 154.656 319.659 155.424C319.019 155.744 317.963 156 316.491 156.192C315.019 156.384 313.515 156.48 311.979 156.48C310.443 156.544 309.227 156.512 308.331 156.384Z" fill="#D3C9B2"/>
<path d="M63.456 88.608C63.392 88.992 63.008 89.088 62.304 88.896C61.664 88.768 61.088 88.32 60.576 87.552C60.064 86.336 59.808 85.216 59.808 84.192C59.808 83.168 59.84 81.632 59.904 79.584C60.288 77.344 60.8 74.432 61.44 70.848C62.144 67.2 62.944 63.136 63.84 58.656C64.8 54.112 65.824 49.376 66.912 44.448C67.68 41.888 68.288 39.552 68.736 37.44C69.248 35.264 69.632 33.504 69.888 32.16C70.144 30.816 70.272 30.144 70.272 30.144C70.272 29.952 70.08 30.048 69.696 30.432C69.376 30.752 69.056 31.136 68.736 31.584C68.416 32.032 68.288 32.384 68.352 32.64C68.352 32.64 68.128 32.96 67.68 33.6C67.232 34.24 66.656 35.104 65.952 36.192C65.312 36.832 64.544 38.112 63.648 40.032C62.752 41.952 61.76 43.744 60.672 45.408C59.648 47.328 58.56 49.408 57.408 51.648C56.256 53.824 55.232 55.648 54.336 57.12C53.76 57.952 53.184 58.912 52.608 60C52.032 61.088 51.68 61.792 51.552 62.112C51.296 62.816 50.848 63.68 50.208 64.704C49.568 65.664 48.864 66.624 48.096 67.584C47.712 68.16 47.328 68.768 46.944 69.408C46.56 69.984 46.24 70.496 45.984 70.944C45.792 71.328 45.696 71.52 45.696 71.52C45.696 71.712 45.376 72.288 44.736 73.248C44.16 74.208 43.424 75.264 42.528 76.416C41.696 77.568 40.896 78.56 40.128 79.392C37.888 81.76 36.096 83.168 34.752 83.616C33.408 84 31.904 83.424 30.24 81.888C29.408 80.864 28.8 79.712 28.416 78.432C28.032 77.088 27.872 75.456 27.936 73.536C28 71.552 28.224 69.088 28.608 66.144C29.056 63.904 29.472 61.664 29.856 59.424C30.24 57.12 30.592 54.976 30.912 52.992C31.296 50.944 31.616 49.216 31.872 47.808C32.192 46.4 32.448 45.472 32.64 45.024C32.768 43.744 32.736 43.04 32.544 42.912C32.352 42.784 31.968 43.168 31.392 44.064C31.136 44.512 30.464 45.632 29.376 47.424C28.288 49.152 27.008 51.296 25.536 53.856C24.128 56.416 22.72 59.2 21.312 62.208C18.688 67.072 16.512 71.104 14.784 74.304C13.12 77.44 11.776 79.936 10.752 81.792C9.792 83.648 9.088 85.024 8.64 85.92C8.192 86.816 7.872 87.424 7.68 87.744C7.488 88.064 7.328 88.288 7.2 88.416C6.624 88.416 6.016 88.16 5.376 87.648C4.8 87.2 4.192 86.656 3.552 86.016C3.36 85.568 3.264 85.12 3.264 84.672C3.328 84.224 3.552 83.584 3.936 82.752C4.32 81.856 4.896 80.512 5.664 78.72C6.496 77.056 7.264 75.616 7.968 74.4C8.672 73.12 9.216 72.352 9.6 72.096C9.92 71.584 10.208 71.072 10.464 70.56C10.72 70.048 10.88 69.44 10.944 68.736C11.264 68.352 11.744 67.584 12.384 66.432C13.088 65.216 13.792 63.904 14.496 62.496C15.008 61.664 15.648 60.576 16.416 59.232C17.248 57.888 18.112 56.416 19.008 54.816C19.904 53.152 20.704 51.584 21.408 50.112C24.352 45.056 26.848 40.8 28.896 37.344C30.944 33.824 32.48 31.584 33.504 30.624C33.824 30.304 34.144 29.856 34.464 29.28C34.848 28.704 35.04 28.192 35.04 27.744C35.04 26.4 35.296 25.184 35.808 24.096C36.384 22.944 36.96 22.432 37.536 22.56C38.176 22.56 38.752 22.624 39.264 22.752C39.776 22.88 40.32 23.296 40.896 24C41.408 24.768 41.856 25.536 42.24 26.304C42.624 27.072 42.592 28.608 42.144 30.912C42.144 31.808 42.048 32.832 41.856 33.984C41.664 35.072 41.472 36.096 41.28 37.056C41.152 37.952 41.056 38.656 40.992 39.168C40.16 41.664 39.392 44.48 38.688 47.616C37.984 50.688 37.344 53.824 36.768 57.024C36.192 60.16 35.712 63.104 35.328 65.856C34.944 68.544 34.688 70.784 34.56 72.576C34.496 74.304 34.56 75.296 34.752 75.552C35.2 75.808 35.584 75.84 35.904 75.648C36.224 75.456 36.768 74.624 37.536 73.152C37.984 72.384 38.592 71.456 39.36 70.368C40.192 69.216 40.992 68.16 41.76 67.2C42.272 66.304 43.072 64.96 44.16 63.168C45.248 61.376 46.624 59.072 48.288 56.256C50.016 53.44 52.064 50.016 54.432 45.984C56.864 41.888 59.616 37.152 62.688 31.776C64.16 29.536 65.536 27.36 66.816 25.248C68.16 23.072 69.248 21.664 70.08 21.024C70.976 20.192 71.904 20 72.864 20.448C73.824 20.832 74.656 21.664 75.36 22.944C76.128 24.224 76.544 25.824 76.608 27.744C76.672 28.64 76.544 30.08 76.224 32.064C75.968 34.048 75.552 36.32 74.976 38.88C74.4 41.376 73.664 43.968 72.768 46.656C72.576 47.744 72.256 49.12 71.808 50.784C71.424 52.384 70.976 54.048 70.464 55.776C69.952 57.504 69.44 59.136 68.928 60.672C68.608 62.784 68.224 64.864 67.776 66.912C67.392 68.96 67.264 70.336 67.392 71.04C66.816 72.064 66.432 73.536 66.24 75.456C66.048 77.376 65.952 79.36 65.952 81.408C65.696 83.904 65.504 85.664 65.376 86.688C65.248 87.712 65.024 88.192 64.704 88.128C63.872 87.872 63.456 88.032 63.456 88.608ZM79.3658 80.544C79.1098 80.032 78.7898 79.648 78.4058 79.392C78.0218 79.072 77.8298 78.784 77.8298 78.528C77.8298 78.272 77.7978 78.016 77.7338 77.76C77.7338 77.44 77.6058 77.152 77.3498 76.896C77.0298 76.512 77.0618 75.648 77.4458 74.304C77.8298 72.896 78.4698 71.2 79.3658 69.216C80.2618 67.168 81.3178 65.024 82.5338 62.784C83.0458 62.272 83.5578 61.6 84.0698 60.768C84.5818 59.936 84.9658 59.392 85.2218 59.136C85.2218 58.88 85.3178 58.656 85.5098 58.464C85.7018 58.208 85.9258 58.08 86.1818 58.08V57.504C86.1818 57.184 86.4698 56.64 87.0458 55.872C87.6858 55.104 88.4538 54.272 89.3498 53.376C90.2458 52.416 91.1738 51.52 92.1338 50.688C93.0938 49.792 93.8938 49.152 94.5338 48.768C95.8778 47.872 97.2538 47.328 98.6618 47.136C100.134 46.944 101.382 47.264 102.406 48.096C102.598 48.288 102.918 48.608 103.366 49.056C103.814 49.504 104.326 50.016 104.902 50.592C105.542 51.104 106.182 51.648 106.822 52.224L110.374 55.392L108.646 60.192C107.814 62.752 107.59 64.992 107.974 66.912C108.422 68.832 109.062 70.496 109.894 71.904C110.214 72.608 110.854 73.28 111.814 73.92C112.838 74.56 113.798 74.944 114.694 75.072C115.206 75.136 115.686 75.328 116.134 75.648C116.582 75.968 116.806 76.48 116.806 77.184C116.806 77.824 116.678 78.336 116.422 78.72C116.166 79.104 115.718 79.36 115.078 79.488C112.966 79.744 110.982 79.232 109.126 77.952C107.334 76.672 105.67 74.56 104.134 71.616C103.878 71.232 103.526 70.528 103.078 69.504C102.694 68.416 102.47 67.712 102.406 67.392C102.15 67.712 101.67 68.32 100.966 69.216C100.262 70.048 99.7178 70.656 99.3338 71.04C94.7898 75.648 90.8538 78.752 87.5258 80.352C84.2618 81.888 81.5418 81.952 79.3658 80.544ZM82.8218 75.168C82.8218 75.616 83.4938 75.616 84.8378 75.168C86.2458 74.656 87.7498 73.76 89.3498 72.48C91.5258 70.624 93.7018 68.576 95.8778 66.336C98.1178 64.096 99.9098 62.016 101.254 60.096L103.366 56.64C102.726 55.168 102.022 54.176 101.254 53.664C100.55 53.088 99.9418 52.8 99.4298 52.8C98.5978 52.8 97.3498 53.568 95.6858 55.104C94.0858 56.64 92.3578 58.688 90.5018 61.248C88.6458 63.808 86.8858 66.624 85.2218 69.696C84.5818 70.976 84.0058 72.224 83.4938 73.44C83.0458 74.592 82.8218 75.168 82.8218 75.168ZM122.424 80.64C121.848 80.192 121.432 79.744 121.176 79.296C120.984 78.848 120.984 77.984 121.176 76.704C121.368 74.912 121.624 73.344 121.944 72C122.264 70.592 122.648 68.992 123.096 67.2C123.224 66.432 123.576 65.12 124.152 63.264C124.792 61.408 125.56 59.392 126.456 57.216C127.352 55.04 128.248 52.992 129.144 51.072C130.04 49.088 130.808 47.616 131.448 46.656C131.96 46.272 132.568 46.112 133.272 46.176C134.04 46.24 134.68 46.528 135.192 47.04C135.896 47.616 135.992 48.64 135.48 50.112C135.032 51.52 134.072 53.76 132.6 56.832C131.832 58.56 131.256 59.872 130.872 60.768C130.488 61.6 130.328 62.112 130.392 62.304C130.456 62.432 130.744 62.336 131.256 62.016C131.64 61.312 132.344 60.512 133.368 59.616C134.392 58.656 135.48 57.728 136.632 56.832C137.784 55.936 138.872 55.136 139.896 54.432C140.92 53.728 141.624 53.28 142.008 53.088C142.52 52.768 143.096 52.512 143.736 52.32C144.44 52.064 144.92 51.872 145.176 51.744C146.648 51.04 148.152 50.784 149.688 50.976C151.224 51.168 152.184 51.744 152.568 52.704C152.632 53.216 152.824 53.6 153.144 53.856C153.528 54.112 153.72 54.24 153.72 54.24C153.976 54.24 154.104 54.336 154.104 54.528C154.168 54.72 154.2 54.816 154.2 54.816C154.2 55.264 153.848 55.552 153.144 55.68C152.504 55.744 151.672 55.808 150.648 55.872C149.816 55.936 149.08 56.096 148.44 56.352C147.8 56.608 147.032 56.928 146.136 57.312C143.704 58.72 141.368 60.096 139.128 61.44C136.952 62.784 134.84 64.576 132.792 66.816C132.344 67.328 131.896 67.936 131.448 68.64C131 69.344 130.52 70.112 130.008 70.944C129.688 71.264 129.368 71.968 129.048 73.056C128.728 74.144 128.44 75.2 128.184 76.224C127.992 77.184 127.896 77.76 127.896 77.952C127.896 77.952 127.8 78.272 127.608 78.912C127.416 79.488 127.096 80.064 126.648 80.64C125.88 81.664 125.24 82.176 124.728 82.176C124.216 82.176 123.448 81.664 122.424 80.64ZM159.994 81.024C159.034 80.896 158.202 80.224 157.498 79.008C156.858 77.728 156.474 76.576 156.346 75.552C156.41 75.04 156.474 74.304 156.538 73.344C156.666 72.384 156.794 71.392 156.922 70.368C157.178 69.152 157.53 67.68 157.978 65.952C158.426 64.16 158.874 62.368 159.322 60.576C159.834 58.784 160.282 57.248 160.666 55.968C161.05 54.688 161.306 53.92 161.434 53.664C161.754 53.152 162.266 53.024 162.97 53.28C163.674 53.536 164.25 53.92 164.698 54.432C165.082 54.944 165.306 55.552 165.37 56.256C165.498 56.96 165.402 57.984 165.082 59.328C164.826 60.672 164.314 62.656 163.546 65.28C162.842 67.84 162.298 69.92 161.914 71.52C161.594 73.056 161.466 74.688 161.53 76.416C161.274 78.592 161.082 79.936 160.954 80.448C160.826 80.896 160.506 81.088 159.994 81.024ZM171.034 42.72C170.778 42.912 170.522 43.008 170.266 43.008C170.074 42.944 169.722 42.752 169.21 42.432C168.762 42.368 168.186 42.08 167.482 41.568C166.842 40.992 166.266 40.416 165.754 39.84C165.306 39.2 165.082 38.816 165.082 38.688C165.018 38.048 165.05 37.248 165.178 36.288C165.37 35.264 165.722 34.368 166.234 33.6C166.746 32.768 167.482 32.32 168.442 32.256C168.698 32.256 168.922 32.288 169.114 32.352C169.306 32.416 169.882 32.64 170.842 33.024C171.354 33.984 171.866 35.072 172.378 36.288C172.89 37.44 173.114 38.592 173.05 39.744C172.986 40.832 172.314 41.824 171.034 42.72ZM179.052 80.832C178.284 80.96 177.452 80.832 176.556 80.448C175.66 80.064 174.86 79.52 174.156 78.816C173.516 78.112 173.1 77.376 172.908 76.608C172.652 75.264 172.812 73.6 173.388 71.616C174.028 69.568 174.924 67.424 176.076 65.184C177.292 62.88 178.636 60.672 180.108 58.56C181.644 56.448 183.212 54.624 184.812 53.088C186.476 51.488 188.012 50.4 189.42 49.824C190.124 49.376 190.668 49.088 191.052 48.96C191.5 48.768 191.948 48.736 192.396 48.864C192.908 48.992 193.644 49.312 194.604 49.824C195.5 50.08 196.172 50.368 196.62 50.688C197.068 51.008 197.644 51.648 198.348 52.608C198.86 53.568 199.244 54.528 199.5 55.488C199.756 56.448 199.98 57.536 200.172 58.752C200.684 60.352 200.876 61.408 200.748 61.92C200.62 62.368 200.428 62.72 200.172 62.976C199.66 63.616 199.532 63.936 199.788 63.936C199.788 63.936 199.756 64.064 199.692 64.32C199.692 64.512 199.564 64.832 199.308 65.28C198.86 66.688 198.508 68.16 198.252 69.696C198.06 71.168 198.092 72.384 198.348 73.344C198.86 74.752 199.788 75.584 201.132 75.84C202.476 76.096 203.852 75.52 205.26 74.112C205.964 73.6 206.636 73.152 207.276 72.768C207.916 72.32 208.236 72.352 208.236 72.864C208.236 72.864 208.332 72.96 208.524 73.152C208.716 73.28 208.94 73.344 209.196 73.344C209.516 73.344 209.708 73.472 209.772 73.728C209.9 73.984 209.9 74.336 209.772 74.784C209.708 75.168 209.516 75.616 209.196 76.128C208.236 77.088 207.756 77.728 207.756 78.048C207.756 78.048 207.628 78.176 207.372 78.432C207.18 78.624 206.828 78.944 206.316 79.392C205.164 80.096 203.692 80.448 201.9 80.448C200.172 80.448 198.828 80.096 197.868 79.392C196.908 78.688 196.012 77.728 195.18 76.512C194.412 75.296 193.9 74.24 193.644 73.344L193.164 72.384L190.38 74.208C189.676 74.912 188.908 75.584 188.076 76.224C187.308 76.864 186.796 77.312 186.54 77.568C186.348 77.824 186.124 78.048 185.868 78.24C185.676 78.432 185.452 78.528 185.196 78.528C184.94 78.528 184.716 78.528 184.524 78.528C184.332 78.528 184.236 78.528 184.236 78.528C184.236 78.784 183.916 79.104 183.276 79.488C182.7 79.872 181.996 80.192 181.164 80.448C180.396 80.704 179.692 80.832 179.052 80.832ZM178.092 75.648C178.476 75.648 179.148 75.36 180.108 74.784C181.132 74.144 182.252 73.408 183.468 72.576C184.748 71.744 185.868 70.912 186.828 70.08C187.852 69.248 188.556 68.608 188.94 68.16C189.196 67.904 189.612 67.488 190.188 66.912C190.764 66.272 191.276 65.728 191.724 65.28C193.196 63.616 194.22 61.792 194.796 59.808C195.372 57.76 195.308 56.16 194.604 55.008C194.348 54.304 194.028 53.92 193.644 53.856C193.26 53.792 192.46 54.016 191.244 54.528C190.476 54.976 189.516 55.84 188.364 57.12C187.276 58.336 186.092 59.776 184.812 61.44C183.596 63.04 182.444 64.704 181.356 66.432C180.268 68.16 179.372 69.76 178.668 71.232C177.964 72.704 177.612 73.856 177.612 74.688C177.612 74.944 177.676 75.168 177.804 75.36C177.996 75.552 178.092 75.648 178.092 75.648Z" fill="#39221E"/>
</svg>
