<svg width="426" height="173" viewBox="0 0 426 173" fill="none" xmlns="http://www.w3.org/2000/svg">
<path d="M82.68 158.472C79.928 156.68 78.072 155.112 77.112 153.768C76.152 152.488 76.536 151.304 78.264 150.216C78.648 149.96 79.256 150.184 80.088 150.888C80.984 151.528 81.72 152.136 82.296 152.712C83.576 153.864 85.144 154.568 87 154.824C88.92 155.144 91.064 154.984 93.432 154.344C96.12 153.512 98.456 152.36 100.44 150.888C102.488 149.352 104.408 147.496 106.2 145.32C107.544 143.592 108.472 141.736 108.984 139.752C109.496 137.704 109.688 135.816 109.56 134.088C109.496 132.36 109.144 131.144 108.504 130.44C106.904 128.2 104.664 126.664 101.784 125.832C98.968 124.936 95.64 125 91.8 126.024C91.352 126.088 90.68 126.216 89.784 126.408C88.888 126.6 88.088 126.792 87.384 126.984C86.68 127.112 86.296 127.176 86.232 127.176C85.784 127.304 85.432 127.464 85.176 127.656C84.92 127.784 84.6 128.264 84.216 129.096C83.896 129.864 83.384 131.272 82.68 133.32C81.976 135.304 80.92 138.248 79.512 142.152C78.168 146.056 77.08 148.84 76.248 150.504C75.48 152.104 74.776 152.84 74.136 152.712C73.56 152.52 72.824 151.816 71.928 150.6C71.416 149.704 71.096 148.84 70.968 148.008C70.84 147.112 71.096 146.088 71.736 144.936C72.056 144.36 72.312 143.848 72.504 143.4C72.696 142.888 72.952 142.024 73.272 140.808C73.592 139.848 74.2 138.184 75.096 135.816C76.056 133.384 77.176 130.568 78.456 127.368C79.736 124.104 81.08 120.744 82.488 117.288C83.896 113.832 85.24 110.568 86.52 107.496C87.864 104.424 88.984 101.832 89.88 99.72C90.776 97.736 91.32 96.296 91.512 95.4C91.704 94.504 91.64 94.024 91.32 93.96C91.32 93.64 91.224 93.352 91.032 93.096C90.84 92.776 90.776 92.488 90.84 92.232C90.84 91.976 91.256 91.624 92.088 91.176C92.984 90.728 93.944 90.312 94.968 89.928C96.056 89.544 96.888 89.416 97.464 89.544C97.784 89.544 98.168 89.544 98.616 89.544C99.064 89.48 99.288 89.32 99.288 89.064C99.48 89.064 100.088 89 101.112 88.872C102.136 88.744 103.256 88.744 104.472 88.872C108.76 89.256 112.088 90.504 114.456 92.616C116.824 94.664 117.976 97.48 117.912 101.064C117.848 102.152 117.272 103.624 116.184 105.48C115.16 107.336 113.88 109.192 112.344 111.048C110.872 112.904 109.432 114.472 108.024 115.752C107.192 116.456 106.296 117.192 105.336 117.96C104.44 118.664 103.64 119.272 102.936 119.784C102.296 120.232 101.976 120.456 101.976 120.456C101.976 120.456 102.232 120.552 102.744 120.744C103.256 120.936 103.8 121.128 104.376 121.32C107.32 122.408 109.752 123.784 111.672 125.448C113.592 127.112 114.904 129.416 115.608 132.36C115.864 133.32 115.864 134.504 115.608 135.912C115.416 137.32 115.128 138.728 114.744 140.136C114.36 141.48 113.944 142.632 113.496 143.592C113.048 144.04 112.696 144.52 112.44 145.032C112.184 145.48 112.056 145.704 112.056 145.704C112.056 145.832 111.8 146.344 111.288 147.24C110.776 148.072 110.168 149 109.464 150.024C108.76 151.048 108.088 151.944 107.448 152.712C106.808 153.224 106.04 153.832 105.144 154.536C104.312 155.24 103.352 155.912 102.264 156.552C101.24 157.192 100.12 157.736 98.904 158.184C97.112 158.952 95.16 159.464 93.048 159.72C91 160.04 89.048 160.072 87.192 159.816C85.336 159.624 83.832 159.176 82.68 158.472ZM87.384 121.512C87.384 121.512 87.96 121.416 89.112 121.224C90.328 120.968 91.64 120.712 93.048 120.456C94.456 120.136 95.48 119.848 96.12 119.592C96.44 119.4 96.888 119.144 97.464 118.824C98.104 118.504 98.744 118.024 99.384 117.384C100.28 116.552 101.4 115.368 102.744 113.832C104.152 112.232 105.528 110.568 106.872 108.84C108.216 107.048 109.24 105.448 109.944 104.04C111.416 101.736 112.216 100.04 112.344 98.952C112.472 97.8 112.12 96.808 111.288 95.976C110.712 95.272 109.72 94.824 108.312 94.632C106.968 94.376 105.528 94.312 103.992 94.44C102.456 94.504 101.144 94.696 100.056 95.016C99.224 95.272 98.584 95.592 98.136 95.976C97.688 96.296 97.464 96.808 97.464 97.512C97.464 98.088 97.272 98.664 96.888 99.24C96.568 99.752 96.248 100.168 95.928 100.488C95.864 100.936 95.704 101.352 95.448 101.736C95.192 102.056 95.064 102.216 95.064 102.216C95.064 102.472 94.616 103.528 93.72 105.384C92.824 107.24 91.928 109.384 91.032 111.816C89.88 114.568 88.984 116.808 88.344 118.536C87.704 120.2 87.384 121.192 87.384 121.512ZM123.147 149.544C122.891 149.032 122.571 148.648 122.187 148.392C121.803 148.072 121.611 147.784 121.611 147.528C121.611 147.272 121.579 147.016 121.515 146.76C121.515 146.44 121.387 146.152 121.131 145.896C120.811 145.512 120.843 144.648 121.227 143.304C121.611 141.896 122.251 140.2 123.147 138.216C124.043 136.168 125.099 134.024 126.315 131.784C126.827 131.272 127.339 130.6 127.851 129.768C128.363 128.936 128.747 128.392 129.003 128.136C129.003 127.88 129.099 127.656 129.291 127.464C129.483 127.208 129.707 127.08 129.963 127.08V126.504C129.963 126.184 130.251 125.64 130.827 124.872C131.467 124.104 132.235 123.272 133.131 122.376C134.027 121.416 134.955 120.52 135.915 119.688C136.875 118.792 137.675 118.152 138.315 117.768C139.659 116.872 141.035 116.328 142.443 116.136C143.915 115.944 145.163 116.264 146.187 117.096C146.379 117.288 146.699 117.608 147.147 118.056C147.595 118.504 148.107 119.016 148.683 119.592C149.323 120.104 149.963 120.648 150.603 121.224L154.155 124.392L152.427 129.192C151.595 131.752 151.371 133.992 151.755 135.912C152.203 137.832 152.843 139.496 153.675 140.904C153.995 141.608 154.635 142.28 155.595 142.92C156.619 143.56 157.579 143.944 158.475 144.072C158.987 144.136 159.467 144.328 159.915 144.648C160.363 144.968 160.587 145.48 160.587 146.184C160.587 146.824 160.459 147.336 160.203 147.72C159.947 148.104 159.499 148.36 158.859 148.488C156.747 148.744 154.763 148.232 152.907 146.952C151.115 145.672 149.451 143.56 147.915 140.616C147.659 140.232 147.307 139.528 146.859 138.504C146.475 137.416 146.251 136.712 146.187 136.392C145.931 136.712 145.451 137.32 144.747 138.216C144.043 139.048 143.499 139.656 143.115 140.04C138.571 144.648 134.635 147.752 131.307 149.352C128.043 150.888 125.323 150.952 123.147 149.544ZM126.603 144.168C126.603 144.616 127.275 144.616 128.619 144.168C130.027 143.656 131.531 142.76 133.131 141.48C135.307 139.624 137.483 137.576 139.659 135.336C141.899 133.096 143.691 131.016 145.035 129.096L147.147 125.64C146.507 124.168 145.803 123.176 145.035 122.664C144.331 122.088 143.723 121.8 143.211 121.8C142.379 121.8 141.131 122.568 139.467 124.104C137.867 125.64 136.139 127.688 134.283 130.248C132.427 132.808 130.667 135.624 129.003 138.696C128.363 139.976 127.787 141.224 127.275 142.44C126.827 143.592 126.603 144.168 126.603 144.168ZM175.037 151.368C173.757 151.24 172.957 151.08 172.637 150.888C172.381 150.696 172.061 150.184 171.677 149.352C171.165 148.776 170.845 148.328 170.717 148.008C170.653 147.688 170.653 147.4 170.717 147.144C171.037 147.144 171.325 147.144 171.581 147.144C171.837 147.08 171.997 146.952 172.061 146.76C172.061 146.568 172.157 146.44 172.349 146.376C172.605 146.312 172.861 146.312 173.117 146.376C174.333 146.44 175.869 146.056 177.725 145.224C179.645 144.328 181.693 143.112 183.869 141.576C186.109 139.976 188.285 138.216 190.397 136.296C192.061 134.12 193.277 132.424 194.045 131.208C194.813 129.928 195.261 128.904 195.389 128.136C195.517 127.304 195.421 126.6 195.101 126.024C194.845 125.512 193.917 125.32 192.317 125.448C190.717 125.512 188.925 126.184 186.941 127.464C184.189 129.192 181.981 130.792 180.317 132.264C178.653 133.736 177.117 135.4 175.709 137.256C175.197 137.896 174.685 138.664 174.173 139.56C173.725 140.456 173.341 141.224 173.021 141.864C172.701 142.504 172.541 142.824 172.541 142.824C172.541 143.08 172.157 143.4 171.389 143.784C170.685 144.168 170.077 144.36 169.565 144.36C169.309 144.232 168.957 144.008 168.509 143.688C168.125 143.304 167.869 142.824 167.741 142.248C167.293 141.928 166.973 141.672 166.781 141.48C166.589 141.288 166.461 141.064 166.397 140.808C166.333 140.424 166.429 139.816 166.685 138.984C166.941 138.152 167.293 136.84 167.741 135.048C168.125 133.384 168.541 131.656 168.989 129.864C169.501 128.072 169.981 126.536 170.429 125.256C170.877 123.976 171.197 123.272 171.389 123.144C171.389 123.144 171.517 122.856 171.773 122.28C172.029 121.704 172.157 121.032 172.157 120.264C172.285 119.496 172.477 118.824 172.733 118.248C173.053 117.672 173.213 117.256 173.213 117C173.469 116.808 173.853 116.04 174.365 114.696C174.877 113.352 175.517 111.592 176.285 109.416C176.285 109.224 176.509 108.616 176.957 107.592C177.405 106.504 177.949 105.256 178.589 103.848C179.229 102.376 179.869 100.872 180.509 99.336C181.213 97.736 181.789 96.328 182.237 95.112C183.005 94.024 183.581 93.032 183.965 92.136C184.413 91.176 184.861 90.6 185.309 90.408C185.629 90.344 186.013 90.376 186.461 90.504C186.973 90.568 187.453 90.728 187.901 90.984C188.413 91.24 188.829 91.624 189.149 92.136C189.341 92.456 189.469 92.744 189.533 93C189.597 93.256 189.501 93.736 189.245 94.44C188.989 95.08 188.477 96.2 187.709 97.8C187.005 99.336 185.949 101.576 184.541 104.52C182.749 108.36 181.277 111.784 180.125 114.792C178.973 117.8 178.013 120.456 177.245 122.76C176.477 125.064 175.773 127.048 175.133 128.712L174.653 130.824L177.053 128.52C178.013 127.816 179.069 126.952 180.221 125.928C181.373 124.904 182.397 124.008 183.293 123.24C183.805 122.856 184.477 122.472 185.309 122.088C186.205 121.64 187.069 121.256 187.901 120.936C188.733 120.616 189.341 120.424 189.725 120.36C189.917 120.296 190.397 120.2 191.165 120.072C191.933 119.944 192.861 119.88 193.949 119.88C195.357 119.88 196.477 120.2 197.309 120.84C198.205 121.48 199.069 122.504 199.901 123.912C200.605 125.256 200.893 126.792 200.765 128.52C200.637 130.184 200.125 131.752 199.229 133.224C198.909 133.48 198.589 133.832 198.269 134.28C197.949 134.664 197.789 134.984 197.789 135.24C197.725 135.688 197.149 136.616 196.061 138.024C194.973 139.368 193.885 140.648 192.797 141.864C191.645 143.08 190.237 144.296 188.573 145.512C186.909 146.664 185.245 147.72 183.581 148.68C181.981 149.576 180.605 150.216 179.453 150.6C178.941 150.664 178.205 150.792 177.245 150.984C176.285 151.112 175.549 151.24 175.037 151.368ZM215.316 153.288C212.5 153.288 210.196 152.232 208.404 150.12C206.612 147.944 205.748 145.256 205.812 142.056C205.94 139.752 206.388 137.288 207.156 134.664C207.988 131.976 209.076 129.416 210.42 126.984C211.764 124.488 213.236 122.312 214.836 120.456C216.436 118.6 218.1 117.288 219.828 116.52C220.468 116.2 221.14 115.944 221.844 115.752C222.612 115.56 223.38 115.464 224.148 115.464C224.852 115.464 225.588 115.592 226.356 115.848C227.124 116.04 227.764 116.264 228.276 116.52C229.364 116.968 230.196 117.512 230.772 118.152C231.348 118.792 231.86 119.784 232.308 121.128C232.5 122.344 232.596 123.208 232.596 123.72C232.596 124.232 232.436 125 232.116 126.024C231.348 128.328 230.356 130.312 229.14 131.976C227.924 133.64 226.292 135.048 224.244 136.2C223.732 136.52 223.124 136.776 222.42 136.968C221.78 137.096 221.108 137.16 220.404 137.16C219.124 137.16 217.876 136.936 216.66 136.488C215.508 135.976 214.58 135.24 213.876 134.28L213.204 133.512L212.916 134.28C212.276 136.008 211.764 137.608 211.38 139.08C211.06 140.552 210.9 141.896 210.9 143.112C210.9 143.88 210.964 144.616 211.092 145.32C211.284 146.024 211.54 146.632 211.86 147.144C212.116 147.528 212.532 147.816 213.108 148.008C213.748 148.136 214.42 148.2 215.124 148.2C215.572 148.2 216.02 148.2 216.468 148.2C216.98 148.136 217.46 148.008 217.908 147.816C218.996 147.432 219.86 147.016 220.5 146.568C221.204 146.12 221.908 145.64 222.612 145.128L222.996 144.936H222.9C223.668 144.552 224.34 144.168 224.916 143.784C225.556 143.4 225.876 143.208 225.876 143.208C226.132 143.208 226.388 143.048 226.644 142.728C227.156 142.472 227.796 142.568 228.564 143.016C229.396 143.464 229.812 144.04 229.812 144.744C229.748 145.064 229.46 145.576 228.948 146.28C228.436 146.92 227.86 147.528 227.22 148.104C226.644 148.68 226.164 149 225.78 149.064C225.716 149.128 225.492 149.256 225.108 149.448C224.724 149.576 224.468 149.704 224.34 149.832H224.436C223.86 150.6 223.284 150.984 222.708 150.984H221.94C221.684 151.432 220.852 151.944 219.444 152.52C218.036 153.032 216.66 153.288 215.316 153.288ZM219.636 132.168C220.788 132.168 221.78 131.848 222.612 131.208C223.508 130.504 224.276 129.736 224.916 128.904C226.196 127.176 226.932 125.512 227.124 123.912C227.38 122.248 227.188 121.096 226.548 120.456C226.164 120.264 225.812 120.168 225.492 120.168C225.236 120.104 224.692 120.2 223.86 120.456C223.284 120.584 222.484 121.064 221.46 121.896C220.436 122.728 219.412 123.656 218.388 124.68C217.428 125.704 216.692 126.568 216.18 127.272L214.932 129.288C215.444 129.096 215.924 129 216.372 129C216.884 128.936 217.172 128.968 217.236 129.096C217.236 129.672 217.332 130.216 217.524 130.728C217.78 131.176 218.068 131.528 218.388 131.784C218.772 132.04 219.188 132.168 219.636 132.168ZM267.079 151.848C266.439 151.848 265.767 151.496 265.063 150.792C264.423 150.088 263.847 149.224 263.335 148.2C262.887 147.112 262.663 146.088 262.663 145.128C262.663 144.168 262.887 142.376 263.335 139.752C263.847 137.128 264.455 134.472 265.159 131.784C265.671 130.12 265.831 129.16 265.639 128.904C265.447 128.648 264.583 129 263.047 129.96C262.151 130.408 261.351 130.888 260.647 131.4C259.943 131.848 259.335 132.36 258.823 132.936C258.503 133.192 258.023 133.608 257.383 134.184C256.743 134.76 256.071 135.304 255.367 135.816C254.535 136.456 253.479 137.352 252.199 138.504C250.919 139.656 249.639 140.808 248.359 141.96C247.143 143.112 246.215 144.008 245.575 144.648C245.447 144.904 245.255 145.128 244.999 145.32C244.743 145.512 244.455 145.64 244.135 145.704C243.815 145.704 243.463 145.64 243.079 145.512C242.375 145.32 241.703 144.904 241.063 144.264C240.487 143.624 240.199 142.888 240.199 142.056C240.199 141.416 240.455 140.328 240.967 138.792C241.479 137.192 242.151 135.272 242.983 133.032C243.879 130.792 244.903 128.424 246.055 125.928C246.247 125.608 246.407 125.224 246.535 124.776C246.663 124.264 246.759 123.72 246.823 123.144C246.951 122.568 247.015 122.024 247.015 121.512C247.015 121.192 247.047 120.872 247.111 120.552C247.239 120.168 247.367 119.816 247.495 119.496C247.687 119.112 247.847 118.856 247.975 118.728C248.231 118.216 248.679 118.088 249.319 118.344C249.959 118.536 250.503 118.984 250.951 119.688C251.911 120.584 252.391 121.704 252.391 123.048C252.455 124.392 252.135 126.056 251.431 128.04C251.175 128.488 250.951 128.936 250.759 129.384C250.631 129.768 250.503 130.12 250.375 130.44C250.247 130.696 250.151 130.92 250.087 131.112C250.023 131.24 249.991 131.304 249.991 131.304C250.247 131.304 250.823 131.016 251.719 130.44C252.615 129.864 253.671 129.224 254.887 128.52C255.847 127.816 256.679 127.176 257.383 126.6C258.151 125.96 258.791 125.48 259.303 125.16C259.815 124.776 260.135 124.584 260.263 124.584C260.519 124.584 260.839 124.488 261.223 124.296C261.607 124.104 261.927 123.88 262.183 123.624C262.439 123.368 262.631 123.24 262.759 123.24C262.951 123.176 263.047 123.144 263.047 123.144C263.047 123.144 263.175 123.144 263.431 123.144C263.687 123.08 263.943 122.92 264.199 122.664C264.711 122.28 265.383 122.184 266.215 122.376C267.047 122.504 267.815 122.824 268.519 123.336C269.223 123.848 269.575 124.424 269.575 125.064C269.575 125.32 269.639 125.544 269.767 125.736C269.959 125.864 270.055 125.928 270.055 125.928C270.567 125.928 270.887 126.728 271.015 128.328C271.207 129.928 271.047 131.464 270.535 132.936C270.535 133.896 270.343 135.048 269.959 136.392C269.639 137.736 269.351 139.016 269.095 140.232C268.583 141.832 268.231 143.24 268.039 144.456C267.847 145.672 267.815 146.696 267.943 147.528C268.071 148.36 268.295 149.032 268.615 149.544C268.871 149.992 268.871 150.504 268.615 151.08C268.359 151.592 267.847 151.848 267.079 151.848ZM305.306 153.192C305.05 153.448 304.346 153.544 303.194 153.48C302.106 153.416 301.082 153.16 300.122 152.712C299.994 152.52 299.77 152.328 299.45 152.136C299.13 151.88 298.81 151.592 298.49 151.272C298.234 150.952 298.01 150.664 297.818 150.408C297.69 150.216 297.37 149.864 296.858 149.352C296.346 148.776 295.834 148.232 295.322 147.72C294.81 147.208 294.458 146.856 294.266 146.664C294.01 146.152 293.498 145.512 292.73 144.744C291.962 143.912 291.226 143.144 290.522 142.44C290.074 141.8 289.626 141.256 289.178 140.808C288.73 140.36 288.346 140.04 288.026 139.848C287.706 139.592 287.45 139.464 287.258 139.464C287.258 139.464 287.13 139.88 286.874 140.712C286.682 141.48 286.394 142.472 286.01 143.688C285.69 144.84 285.338 146.024 284.954 147.24C284.634 148.392 284.378 149.32 284.186 150.024C283.738 150.92 283.354 151.528 283.034 151.848C282.714 152.168 282.298 152.328 281.786 152.328C281.082 152.328 280.442 152.008 279.866 151.368C279.354 150.728 279.098 149.8 279.098 148.584C278.842 147.688 279.162 145.736 280.058 142.728C280.954 139.72 282.33 135.88 284.186 131.208C284.442 130.248 284.762 129.256 285.146 128.232C285.53 127.144 285.85 126.248 286.106 125.544C286.746 123.432 287.418 121.48 288.122 119.688C288.89 117.832 289.69 115.976 290.522 114.12C291.354 112.2 292.218 110.152 293.114 107.976C293.69 106.824 294.106 105.992 294.362 105.48C294.618 104.904 294.906 104.328 295.226 103.752C295.546 103.112 296.026 102.184 296.666 100.968C298.074 98.344 299.194 96.296 300.026 94.824C300.858 93.352 301.498 92.264 301.946 91.56C302.394 90.856 302.778 90.344 303.098 90.024C303.418 89.704 303.802 89.48 304.25 89.352C304.698 89.224 305.146 89.224 305.594 89.352C306.042 89.416 306.426 89.64 306.746 90.024C307.258 90.536 307.546 91.08 307.61 91.656C307.738 92.168 307.61 92.872 307.226 93.768C306.906 94.664 306.266 95.912 305.306 97.512C304.794 98.664 304.378 99.496 304.058 100.008C303.738 100.52 303.418 101.032 303.098 101.544C302.778 102.056 302.266 102.952 301.562 104.232C301.434 104.616 301.242 105.032 300.986 105.48C300.73 105.928 300.442 106.152 300.122 106.152C300.122 106.344 300.026 106.728 299.834 107.304C299.642 107.88 299.418 108.424 299.161 108.936C298.97 109.64 298.65 110.408 298.202 111.24C297.818 112.008 297.53 112.648 297.338 113.16C297.018 113.928 296.506 114.984 295.802 116.328C295.162 117.672 294.522 118.984 293.882 120.264C293.306 121.48 292.954 122.44 292.826 123.144C292.826 123.4 293.018 123.368 293.402 123.048C293.786 122.728 294.202 122.44 294.65 122.184C295.61 121.416 296.698 120.648 297.914 119.88C299.194 119.048 300.41 118.344 301.562 117.768C302.778 117.128 303.77 116.744 304.538 116.616C305.498 116.36 306.266 116.232 306.842 116.232C307.482 116.232 308.122 116.36 308.762 116.616C309.274 116.872 309.69 117.224 310.01 117.672C310.394 118.12 310.714 118.632 310.97 119.208C311.29 119.784 311.514 120.488 311.642 121.32C311.642 121.896 311.418 122.856 310.97 124.2C310.522 125.544 309.978 126.856 309.338 128.136C308.698 129.352 308.058 130.216 307.418 130.728C306.97 130.92 306.618 131.112 306.362 131.304C306.106 131.496 305.978 131.592 305.978 131.592C305.978 131.848 305.85 132.168 305.594 132.552C305.402 132.936 305.05 133.256 304.538 133.512C304.282 133.768 303.994 134.088 303.674 134.472C303.354 134.856 303.194 135.144 303.194 135.336C303.194 135.336 303.194 135.432 303.194 135.624C303.194 135.752 303.194 135.816 303.194 135.816C302.938 135.816 302.554 136.008 302.042 136.392C301.594 136.776 301.018 137.224 300.314 137.736C299.61 138.44 299.098 138.824 298.778 138.888C298.522 138.952 298.138 139.08 297.626 139.272C297.498 139.4 297.338 139.496 297.146 139.56C297.018 139.624 296.858 139.688 296.666 139.752C296.538 139.816 296.41 139.88 296.281 139.944C296.218 140.008 296.186 140.104 296.186 140.232C296.186 140.488 296.474 141.032 297.05 141.864C297.69 142.632 298.426 143.496 299.258 144.456C300.154 145.416 300.986 146.312 301.754 147.144C302.586 147.912 303.194 148.424 303.578 148.68C304.218 148.936 304.666 149.384 304.922 150.024C305.242 150.6 305.434 151.208 305.498 151.848C305.562 152.424 305.498 152.872 305.306 153.192ZM293.786 136.2C294.106 135.944 294.778 135.432 295.802 134.664C296.826 133.832 297.946 132.936 299.161 131.976C300.378 130.952 301.466 129.992 302.426 129.096C303.45 128.136 304.154 127.432 304.538 126.984C304.986 126.536 305.434 125.768 305.882 124.68C306.33 123.592 306.394 122.728 306.074 122.088C306.01 121.832 305.434 121.96 304.346 122.472C303.258 122.984 302.01 123.592 300.602 124.296C299.514 124.936 298.234 125.768 296.762 126.792C295.354 127.816 294.01 128.904 292.73 130.056C291.514 131.208 290.586 132.328 289.946 133.416C289.818 133.864 289.946 134.376 290.33 134.952C290.714 135.528 291.226 135.976 291.866 136.296C292.506 136.552 293.146 136.52 293.786 136.2ZM325.296 152.424C324.464 152.488 323.792 152.424 323.28 152.232C322.768 151.976 322.128 151.624 321.36 151.176C319.952 150.088 318.896 149 318.192 147.912C317.552 146.76 317.264 145.64 317.328 144.552C317.456 143.976 317.456 143.464 317.328 143.016C317.264 142.568 317.232 142.344 317.232 142.344C316.848 142.024 316.72 141.832 316.848 141.768C316.976 141.64 317.072 141.448 317.136 141.192C317.648 141.064 317.712 140.712 317.328 140.136C317.136 139.624 317.232 138.472 317.616 136.68C318.064 134.824 318.64 133.096 319.344 131.496C319.664 130.792 320.112 129.864 320.688 128.712C321.328 127.56 322.032 126.408 322.8 125.256C323.568 124.04 324.272 123.08 324.912 122.376C326.32 120.776 327.568 119.592 328.656 118.824C329.808 117.992 331.088 117.32 332.496 116.808C333.776 116.296 334.704 116.008 335.28 115.944C335.856 115.88 336.656 116.264 337.68 117.096C339.216 117.544 340.368 118.184 341.136 119.016C341.968 119.784 342.608 121 343.056 122.664C343.568 124.52 343.728 126.728 343.536 129.288C343.408 131.784 342.32 135.016 340.272 138.984C339.056 141.48 337.84 143.368 336.624 144.648C335.472 145.928 334.064 147.272 332.4 148.68C331.184 149.704 330.064 150.504 329.04 151.08C328.016 151.656 326.768 152.104 325.296 152.424ZM332.976 141C334.256 139.08 335.248 137.32 335.952 135.72C336.72 134.056 337.328 131.976 337.776 129.48C337.904 128.776 337.936 127.912 337.872 126.888C337.808 125.8 337.648 124.808 337.392 123.912C337.2 123.016 336.912 122.536 336.528 122.472C335.696 122.152 334.768 122.152 333.744 122.472C332.72 122.728 331.6 123.496 330.384 124.776C329.296 126.056 328.304 127.496 327.408 129.096C326.576 130.696 325.808 132.456 325.104 134.376C324.4 136.296 323.728 138.344 323.088 140.52C322.448 142.952 322.48 144.808 323.184 146.088C323.952 147.368 325.2 147.688 326.928 147.048C328.656 146.344 330.672 144.328 332.976 141ZM357.412 147.144C356.964 146.76 356.388 145.608 355.684 143.688C355.044 141.768 354.404 139.528 353.764 136.968C353.188 134.344 352.708 131.944 352.324 129.768C352.068 128.488 351.78 127.4 351.46 126.504C351.204 125.608 350.98 124.872 350.788 124.296C350.468 123.144 350.372 122.184 350.5 121.416C350.628 120.648 351.076 120.04 351.844 119.592C352.164 119.4 352.548 119.272 352.996 119.208C353.508 119.08 353.892 119.048 354.148 119.112C354.916 119.368 355.62 120.552 356.26 122.664C356.9 124.712 357.476 127.432 357.988 130.824C358.244 132.808 358.564 134.504 358.948 135.912C359.332 137.32 359.524 138.152 359.524 138.408C359.78 138.92 360.068 139.432 360.388 139.944C360.772 140.392 361.22 140.36 361.732 139.848C361.988 139.592 362.5 139.016 363.268 138.12C364.1 137.224 364.9 136.264 365.668 135.24C367.012 133.448 368.068 131.976 368.836 130.824C369.668 129.672 370.596 128.456 371.62 127.176C372.068 126.536 372.58 125.832 373.156 125.064C373.732 124.296 374.308 123.592 374.884 122.952C375.524 122.248 376.1 121.832 376.612 121.704C378.148 121.448 378.98 121.768 379.108 122.664C379.236 123.56 378.66 124.904 377.38 126.696C376.868 127.464 376.452 128.2 376.132 128.904C375.876 129.544 375.62 129.992 375.364 130.248C374.852 131.272 374.052 132.584 372.964 134.184C371.876 135.72 370.82 137.16 369.796 138.504C368.772 139.784 368.068 140.616 367.684 141C367.428 141.256 366.852 141.736 365.956 142.44C365.124 143.144 364.324 144.04 363.556 145.128C362.02 146.6 360.804 147.496 359.908 147.816C359.012 148.136 358.18 147.912 357.412 147.144ZM380.96 149.544C380.704 149.032 380.384 148.648 380 148.392C379.616 148.072 379.424 147.784 379.424 147.528C379.424 147.272 379.392 147.016 379.328 146.76C379.328 146.44 379.2 146.152 378.944 145.896C378.624 145.512 378.656 144.648 379.04 143.304C379.424 141.896 380.064 140.2 380.96 138.216C381.856 136.168 382.912 134.024 384.128 131.784C384.64 131.272 385.152 130.6 385.664 129.768C386.176 128.936 386.56 128.392 386.816 128.136C386.816 127.88 386.912 127.656 387.104 127.464C387.296 127.208 387.52 127.08 387.776 127.08V126.504C387.776 126.184 388.064 125.64 388.64 124.872C389.28 124.104 390.048 123.272 390.944 122.376C391.84 121.416 392.768 120.52 393.728 119.688C394.688 118.792 395.488 118.152 396.128 117.768C397.472 116.872 398.848 116.328 400.256 116.136C401.728 115.944 402.976 116.264 404 117.096C404.192 117.288 404.512 117.608 404.96 118.056C405.408 118.504 405.92 119.016 406.496 119.592C407.136 120.104 407.776 120.648 408.416 121.224L411.968 124.392L410.24 129.192C409.408 131.752 409.184 133.992 409.568 135.912C410.016 137.832 410.656 139.496 411.488 140.904C411.808 141.608 412.448 142.28 413.408 142.92C414.432 143.56 415.392 143.944 416.288 144.072C416.8 144.136 417.28 144.328 417.728 144.648C418.176 144.968 418.4 145.48 418.4 146.184C418.4 146.824 418.272 147.336 418.016 147.72C417.76 148.104 417.312 148.36 416.672 148.488C414.56 148.744 412.576 148.232 410.72 146.952C408.928 145.672 407.264 143.56 405.728 140.616C405.472 140.232 405.12 139.528 404.672 138.504C404.288 137.416 404.064 136.712 404 136.392C403.744 136.712 403.264 137.32 402.56 138.216C401.856 139.048 401.312 139.656 400.928 140.04C396.384 144.648 392.448 147.752 389.12 149.352C385.856 150.888 383.136 150.952 380.96 149.544ZM384.416 144.168C384.416 144.616 385.088 144.616 386.432 144.168C387.84 143.656 389.344 142.76 390.944 141.48C393.12 139.624 395.296 137.576 397.472 135.336C399.712 133.096 401.504 131.016 402.848 129.096L404.96 125.64C404.32 124.168 403.616 123.176 402.848 122.664C402.144 122.088 401.536 121.8 401.024 121.8C400.192 121.8 398.944 122.568 397.28 124.104C395.68 125.64 393.952 127.688 392.096 130.248C390.24 132.808 388.48 135.624 386.816 138.696C386.176 139.976 385.6 141.224 385.088 142.44C384.64 143.592 384.416 144.168 384.416 144.168Z" fill="#D3C9B2"/>
<path d="M63.456 88.608C63.392 88.992 63.008 89.088 62.304 88.896C61.664 88.768 61.088 88.32 60.576 87.552C60.064 86.336 59.808 85.216 59.808 84.192C59.808 83.168 59.84 81.632 59.904 79.584C60.288 77.344 60.8 74.432 61.44 70.848C62.144 67.2 62.944 63.136 63.84 58.656C64.8 54.112 65.824 49.376 66.912 44.448C67.68 41.888 68.288 39.552 68.736 37.44C69.248 35.264 69.632 33.504 69.888 32.16C70.144 30.816 70.272 30.144 70.272 30.144C70.272 29.952 70.08 30.048 69.696 30.432C69.376 30.752 69.056 31.136 68.736 31.584C68.416 32.032 68.288 32.384 68.352 32.64C68.352 32.64 68.128 32.96 67.68 33.6C67.232 34.24 66.656 35.104 65.952 36.192C65.312 36.832 64.544 38.112 63.648 40.032C62.752 41.952 61.76 43.744 60.672 45.408C59.648 47.328 58.56 49.408 57.408 51.648C56.256 53.824 55.232 55.648 54.336 57.12C53.76 57.952 53.184 58.912 52.608 60C52.032 61.088 51.68 61.792 51.552 62.112C51.296 62.816 50.848 63.68 50.208 64.704C49.568 65.664 48.864 66.624 48.096 67.584C47.712 68.16 47.328 68.768 46.944 69.408C46.56 69.984 46.24 70.496 45.984 70.944C45.792 71.328 45.696 71.52 45.696 71.52C45.696 71.712 45.376 72.288 44.736 73.248C44.16 74.208 43.424 75.264 42.528 76.416C41.696 77.568 40.896 78.56 40.128 79.392C37.888 81.76 36.096 83.168 34.752 83.616C33.408 84 31.904 83.424 30.24 81.888C29.408 80.864 28.8 79.712 28.416 78.432C28.032 77.088 27.872 75.456 27.936 73.536C28 71.552 28.224 69.088 28.608 66.144C29.056 63.904 29.472 61.664 29.856 59.424C30.24 57.12 30.592 54.976 30.912 52.992C31.296 50.944 31.616 49.216 31.872 47.808C32.192 46.4 32.448 45.472 32.64 45.024C32.768 43.744 32.736 43.04 32.544 42.912C32.352 42.784 31.968 43.168 31.392 44.064C31.136 44.512 30.464 45.632 29.376 47.424C28.288 49.152 27.008 51.296 25.536 53.856C24.128 56.416 22.72 59.2 21.312 62.208C18.688 67.072 16.512 71.104 14.784 74.304C13.12 77.44 11.776 79.936 10.752 81.792C9.792 83.648 9.088 85.024 8.64 85.92C8.192 86.816 7.872 87.424 7.68 87.744C7.488 88.064 7.328 88.288 7.2 88.416C6.624 88.416 6.016 88.16 5.376 87.648C4.8 87.2 4.192 86.656 3.552 86.016C3.36 85.568 3.264 85.12 3.264 84.672C3.328 84.224 3.552 83.584 3.936 82.752C4.32 81.856 4.896 80.512 5.664 78.72C6.496 77.056 7.264 75.616 7.968 74.4C8.672 73.12 9.216 72.352 9.6 72.096C9.92 71.584 10.208 71.072 10.464 70.56C10.72 70.048 10.88 69.44 10.944 68.736C11.264 68.352 11.744 67.584 12.384 66.432C13.088 65.216 13.792 63.904 14.496 62.496C15.008 61.664 15.648 60.576 16.416 59.232C17.248 57.888 18.112 56.416 19.008 54.816C19.904 53.152 20.704 51.584 21.408 50.112C24.352 45.056 26.848 40.8 28.896 37.344C30.944 33.824 32.48 31.584 33.504 30.624C33.824 30.304 34.144 29.856 34.464 29.28C34.848 28.704 35.04 28.192 35.04 27.744C35.04 26.4 35.296 25.184 35.808 24.096C36.384 22.944 36.96 22.432 37.536 22.56C38.176 22.56 38.752 22.624 39.264 22.752C39.776 22.88 40.32 23.296 40.896 24C41.408 24.768 41.856 25.536 42.24 26.304C42.624 27.072 42.592 28.608 42.144 30.912C42.144 31.808 42.048 32.832 41.856 33.984C41.664 35.072 41.472 36.096 41.28 37.056C41.152 37.952 41.056 38.656 40.992 39.168C40.16 41.664 39.392 44.48 38.688 47.616C37.984 50.688 37.344 53.824 36.768 57.024C36.192 60.16 35.712 63.104 35.328 65.856C34.944 68.544 34.688 70.784 34.56 72.576C34.496 74.304 34.56 75.296 34.752 75.552C35.2 75.808 35.584 75.84 35.904 75.648C36.224 75.456 36.768 74.624 37.536 73.152C37.984 72.384 38.592 71.456 39.36 70.368C40.192 69.216 40.992 68.16 41.76 67.2C42.272 66.304 43.072 64.96 44.16 63.168C45.248 61.376 46.624 59.072 48.288 56.256C50.016 53.44 52.064 50.016 54.432 45.984C56.864 41.888 59.616 37.152 62.688 31.776C64.16 29.536 65.536 27.36 66.816 25.248C68.16 23.072 69.248 21.664 70.08 21.024C70.976 20.192 71.904 20 72.864 20.448C73.824 20.832 74.656 21.664 75.36 22.944C76.128 24.224 76.544 25.824 76.608 27.744C76.672 28.64 76.544 30.08 76.224 32.064C75.968 34.048 75.552 36.32 74.976 38.88C74.4 41.376 73.664 43.968 72.768 46.656C72.576 47.744 72.256 49.12 71.808 50.784C71.424 52.384 70.976 54.048 70.464 55.776C69.952 57.504 69.44 59.136 68.928 60.672C68.608 62.784 68.224 64.864 67.776 66.912C67.392 68.96 67.264 70.336 67.392 71.04C66.816 72.064 66.432 73.536 66.24 75.456C66.048 77.376 65.952 79.36 65.952 81.408C65.696 83.904 65.504 85.664 65.376 86.688C65.248 87.712 65.024 88.192 64.704 88.128C63.872 87.872 63.456 88.032 63.456 88.608ZM79.3658 80.544C79.1098 80.032 78.7898 79.648 78.4058 79.392C78.0218 79.072 77.8298 78.784 77.8298 78.528C77.8298 78.272 77.7978 78.016 77.7338 77.76C77.7338 77.44 77.6058 77.152 77.3498 76.896C77.0298 76.512 77.0618 75.648 77.4458 74.304C77.8298 72.896 78.4698 71.2 79.3658 69.216C80.2618 67.168 81.3178 65.024 82.5338 62.784C83.0458 62.272 83.5578 61.6 84.0698 60.768C84.5818 59.936 84.9658 59.392 85.2218 59.136C85.2218 58.88 85.3178 58.656 85.5098 58.464C85.7018 58.208 85.9258 58.08 86.1818 58.08V57.504C86.1818 57.184 86.4698 56.64 87.0458 55.872C87.6858 55.104 88.4538 54.272 89.3498 53.376C90.2458 52.416 91.1738 51.52 92.1338 50.688C93.0938 49.792 93.8938 49.152 94.5338 48.768C95.8778 47.872 97.2538 47.328 98.6618 47.136C100.134 46.944 101.382 47.264 102.406 48.096C102.598 48.288 102.918 48.608 103.366 49.056C103.814 49.504 104.326 50.016 104.902 50.592C105.542 51.104 106.182 51.648 106.822 52.224L110.374 55.392L108.646 60.192C107.814 62.752 107.59 64.992 107.974 66.912C108.422 68.832 109.062 70.496 109.894 71.904C110.214 72.608 110.854 73.28 111.814 73.92C112.838 74.56 113.798 74.944 114.694 75.072C115.206 75.136 115.686 75.328 116.134 75.648C116.582 75.968 116.806 76.48 116.806 77.184C116.806 77.824 116.678 78.336 116.422 78.72C116.166 79.104 115.718 79.36 115.078 79.488C112.966 79.744 110.982 79.232 109.126 77.952C107.334 76.672 105.67 74.56 104.134 71.616C103.878 71.232 103.526 70.528 103.078 69.504C102.694 68.416 102.47 67.712 102.406 67.392C102.15 67.712 101.67 68.32 100.966 69.216C100.262 70.048 99.7178 70.656 99.3338 71.04C94.7898 75.648 90.8538 78.752 87.5258 80.352C84.2618 81.888 81.5418 81.952 79.3658 80.544ZM82.8218 75.168C82.8218 75.616 83.4938 75.616 84.8378 75.168C86.2458 74.656 87.7498 73.76 89.3498 72.48C91.5258 70.624 93.7018 68.576 95.8778 66.336C98.1178 64.096 99.9098 62.016 101.254 60.096L103.366 56.64C102.726 55.168 102.022 54.176 101.254 53.664C100.55 53.088 99.9418 52.8 99.4298 52.8C98.5978 52.8 97.3498 53.568 95.6858 55.104C94.0858 56.64 92.3578 58.688 90.5018 61.248C88.6458 63.808 86.8858 66.624 85.2218 69.696C84.5818 70.976 84.0058 72.224 83.4938 73.44C83.0458 74.592 82.8218 75.168 82.8218 75.168ZM122.424 80.64C121.848 80.192 121.432 79.744 121.176 79.296C120.984 78.848 120.984 77.984 121.176 76.704C121.368 74.912 121.624 73.344 121.944 72C122.264 70.592 122.648 68.992 123.096 67.2C123.224 66.432 123.576 65.12 124.152 63.264C124.792 61.408 125.56 59.392 126.456 57.216C127.352 55.04 128.248 52.992 129.144 51.072C130.04 49.088 130.808 47.616 131.448 46.656C131.96 46.272 132.568 46.112 133.272 46.176C134.04 46.24 134.68 46.528 135.192 47.04C135.896 47.616 135.992 48.64 135.48 50.112C135.032 51.52 134.072 53.76 132.6 56.832C131.832 58.56 131.256 59.872 130.872 60.768C130.488 61.6 130.328 62.112 130.392 62.304C130.456 62.432 130.744 62.336 131.256 62.016C131.64 61.312 132.344 60.512 133.368 59.616C134.392 58.656 135.48 57.728 136.632 56.832C137.784 55.936 138.872 55.136 139.896 54.432C140.92 53.728 141.624 53.28 142.008 53.088C142.52 52.768 143.096 52.512 143.736 52.32C144.44 52.064 144.92 51.872 145.176 51.744C146.648 51.04 148.152 50.784 149.688 50.976C151.224 51.168 152.184 51.744 152.568 52.704C152.632 53.216 152.824 53.6 153.144 53.856C153.528 54.112 153.72 54.24 153.72 54.24C153.976 54.24 154.104 54.336 154.104 54.528C154.168 54.72 154.2 54.816 154.2 54.816C154.2 55.264 153.848 55.552 153.144 55.68C152.504 55.744 151.672 55.808 150.648 55.872C149.816 55.936 149.08 56.096 148.44 56.352C147.8 56.608 147.032 56.928 146.136 57.312C143.704 58.72 141.368 60.096 139.128 61.44C136.952 62.784 134.84 64.576 132.792 66.816C132.344 67.328 131.896 67.936 131.448 68.64C131 69.344 130.52 70.112 130.008 70.944C129.688 71.264 129.368 71.968 129.048 73.056C128.728 74.144 128.44 75.2 128.184 76.224C127.992 77.184 127.896 77.76 127.896 77.952C127.896 77.952 127.8 78.272 127.608 78.912C127.416 79.488 127.096 80.064 126.648 80.64C125.88 81.664 125.24 82.176 124.728 82.176C124.216 82.176 123.448 81.664 122.424 80.64ZM159.994 81.024C159.034 80.896 158.202 80.224 157.498 79.008C156.858 77.728 156.474 76.576 156.346 75.552C156.41 75.04 156.474 74.304 156.538 73.344C156.666 72.384 156.794 71.392 156.922 70.368C157.178 69.152 157.53 67.68 157.978 65.952C158.426 64.16 158.874 62.368 159.322 60.576C159.834 58.784 160.282 57.248 160.666 55.968C161.05 54.688 161.306 53.92 161.434 53.664C161.754 53.152 162.266 53.024 162.97 53.28C163.674 53.536 164.25 53.92 164.698 54.432C165.082 54.944 165.306 55.552 165.37 56.256C165.498 56.96 165.402 57.984 165.082 59.328C164.826 60.672 164.314 62.656 163.546 65.28C162.842 67.84 162.298 69.92 161.914 71.52C161.594 73.056 161.466 74.688 161.53 76.416C161.274 78.592 161.082 79.936 160.954 80.448C160.826 80.896 160.506 81.088 159.994 81.024ZM171.034 42.72C170.778 42.912 170.522 43.008 170.266 43.008C170.074 42.944 169.722 42.752 169.21 42.432C168.762 42.368 168.186 42.08 167.482 41.568C166.842 40.992 166.266 40.416 165.754 39.84C165.306 39.2 165.082 38.816 165.082 38.688C165.018 38.048 165.05 37.248 165.178 36.288C165.37 35.264 165.722 34.368 166.234 33.6C166.746 32.768 167.482 32.32 168.442 32.256C168.698 32.256 168.922 32.288 169.114 32.352C169.306 32.416 169.882 32.64 170.842 33.024C171.354 33.984 171.866 35.072 172.378 36.288C172.89 37.44 173.114 38.592 173.05 39.744C172.986 40.832 172.314 41.824 171.034 42.72ZM179.052 80.832C178.284 80.96 177.452 80.832 176.556 80.448C175.66 80.064 174.86 79.52 174.156 78.816C173.516 78.112 173.1 77.376 172.908 76.608C172.652 75.264 172.812 73.6 173.388 71.616C174.028 69.568 174.924 67.424 176.076 65.184C177.292 62.88 178.636 60.672 180.108 58.56C181.644 56.448 183.212 54.624 184.812 53.088C186.476 51.488 188.012 50.4 189.42 49.824C190.124 49.376 190.668 49.088 191.052 48.96C191.5 48.768 191.948 48.736 192.396 48.864C192.908 48.992 193.644 49.312 194.604 49.824C195.5 50.08 196.172 50.368 196.62 50.688C197.068 51.008 197.644 51.648 198.348 52.608C198.86 53.568 199.244 54.528 199.5 55.488C199.756 56.448 199.98 57.536 200.172 58.752C200.684 60.352 200.876 61.408 200.748 61.92C200.62 62.368 200.428 62.72 200.172 62.976C199.66 63.616 199.532 63.936 199.788 63.936C199.788 63.936 199.756 64.064 199.692 64.32C199.692 64.512 199.564 64.832 199.308 65.28C198.86 66.688 198.508 68.16 198.252 69.696C198.06 71.168 198.092 72.384 198.348 73.344C198.86 74.752 199.788 75.584 201.132 75.84C202.476 76.096 203.852 75.52 205.26 74.112C205.964 73.6 206.636 73.152 207.276 72.768C207.916 72.32 208.236 72.352 208.236 72.864C208.236 72.864 208.332 72.96 208.524 73.152C208.716 73.28 208.94 73.344 209.196 73.344C209.516 73.344 209.708 73.472 209.772 73.728C209.9 73.984 209.9 74.336 209.772 74.784C209.708 75.168 209.516 75.616 209.196 76.128C208.236 77.088 207.756 77.728 207.756 78.048C207.756 78.048 207.628 78.176 207.372 78.432C207.18 78.624 206.828 78.944 206.316 79.392C205.164 80.096 203.692 80.448 201.9 80.448C200.172 80.448 198.828 80.096 197.868 79.392C196.908 78.688 196.012 77.728 195.18 76.512C194.412 75.296 193.9 74.24 193.644 73.344L193.164 72.384L190.38 74.208C189.676 74.912 188.908 75.584 188.076 76.224C187.308 76.864 186.796 77.312 186.54 77.568C186.348 77.824 186.124 78.048 185.868 78.24C185.676 78.432 185.452 78.528 185.196 78.528C184.94 78.528 184.716 78.528 184.524 78.528C184.332 78.528 184.236 78.528 184.236 78.528C184.236 78.784 183.916 79.104 183.276 79.488C182.7 79.872 181.996 80.192 181.164 80.448C180.396 80.704 179.692 80.832 179.052 80.832ZM178.092 75.648C178.476 75.648 179.148 75.36 180.108 74.784C181.132 74.144 182.252 73.408 183.468 72.576C184.748 71.744 185.868 70.912 186.828 70.08C187.852 69.248 188.556 68.608 188.94 68.16C189.196 67.904 189.612 67.488 190.188 66.912C190.764 66.272 191.276 65.728 191.724 65.28C193.196 63.616 194.22 61.792 194.796 59.808C195.372 57.76 195.308 56.16 194.604 55.008C194.348 54.304 194.028 53.92 193.644 53.856C193.26 53.792 192.46 54.016 191.244 54.528C190.476 54.976 189.516 55.84 188.364 57.12C187.276 58.336 186.092 59.776 184.812 61.44C183.596 63.04 182.444 64.704 181.356 66.432C180.268 68.16 179.372 69.76 178.668 71.232C177.964 72.704 177.612 73.856 177.612 74.688C177.612 74.944 177.676 75.168 177.804 75.36C177.996 75.552 178.092 75.648 178.092 75.648Z" fill="#39221E"/>
</svg>
