<svg width="50" height="56" viewBox="0 0 50 56" fill="none" xmlns="http://www.w3.org/2000/svg">
<g filter="url(#filter0_d_357_23)">
<path d="M32.9156 17.423C32.2521 16.1148 31.2704 14.9945 30.0608 14.1649C28.8511 13.3353 27.4523 12.8231 25.9929 12.6754C25.3328 12.6092 24.6677 12.6092 24.0075 12.6754C22.5482 12.8232 21.1494 13.3354 19.9397 14.1649C18.73 14.9943 17.7482 16.1145 17.0844 17.4225C16.2493 19.0915 15.9267 20.9702 16.1573 22.8221C16.3879 24.674 17.1614 26.4163 18.3803 27.8294L24.3241 35.0559C24.4061 35.1558 24.5093 35.2362 24.6262 35.2914C24.7431 35.3466 24.8707 35.3753 25 35.3753C25.1293 35.3753 25.2569 35.3466 25.3738 35.2914C25.4907 35.2362 25.5939 35.1558 25.6759 35.0559L31.6197 27.8294C32.8386 26.4164 33.6121 24.6742 33.8427 22.8223C34.0733 20.9705 33.7507 19.0918 32.9156 17.423ZM25 24.875C24.3078 24.875 23.6311 24.6697 23.0555 24.2852C22.4799 23.9006 22.0313 23.3539 21.7664 22.7144C21.5015 22.0749 21.4322 21.3711 21.5673 20.6922C21.7023 20.0133 22.0356 19.3896 22.5251 18.9001C23.0146 18.4107 23.6382 18.0773 24.3172 17.9423C24.9961 17.8072 25.6999 17.8765 26.3394 18.1414C26.9789 18.4063 27.5256 18.8549 27.9101 19.4305C28.2947 20.0061 28.5 20.6828 28.5 21.375C28.4989 22.3029 28.1298 23.1925 27.4737 23.8487C26.8175 24.5048 25.9279 24.8739 25 24.875Z" fill="#D3C9B2"/>
</g>
<defs>
<filter id="filter0_d_357_23" x="0.0848541" y="0.625732" width="49.8303" height="54.7495" filterUnits="userSpaceOnUse" color-interpolation-filters="sRGB">
<feFlood flood-opacity="0" result="BackgroundImageFix"/>
<feColorMatrix in="SourceAlpha" type="matrix" values="0 0 0 0 0 0 0 0 0 0 0 0 0 0 0 0 0 0 127 0" result="hardAlpha"/>
<feOffset dy="4"/>
<feGaussianBlur stdDeviation="8"/>
<feComposite in2="hardAlpha" operator="out"/>
<feColorMatrix type="matrix" values="0 0 0 0 0.886275 0 0 0 0 0.819608 0 0 0 0 0.764706 0 0 0 1 0"/>
<feBlend mode="normal" in2="BackgroundImageFix" result="effect1_dropShadow_357_23"/>
<feBlend mode="normal" in="SourceGraphic" in2="effect1_dropShadow_357_23" result="shape"/>
</filter>
</defs>
</svg>
