<svg width="111" height="99" viewBox="0 0 111 99" fill="none" xmlns="http://www.w3.org/2000/svg">
<path opacity="0.4" d="M11.1658 49.4505C14.7332 50.6602 18.3591 51.3895 21.8397 52.6367C25.3733 53.9028 28.5954 55.5646 31.7553 57.3688C34.9397 59.1869 37.8093 61.3756 40.4715 63.757C43.1938 66.1922 45.4744 68.96 47.6026 71.8113C49.6922 74.6103 51.4247 77.6035 52.7002 80.7612C53.9308 83.8092 55.1843 86.8719 55.4881 90.1505C56.7509 83.4423 59.5545 77.3155 63.6297 71.628C67.7354 65.8988 72.9744 61.1405 79.3057 57.3335C85.5696 53.5655 92.4971 51.1424 99.8985 49.4806C92.459 47.9412 85.578 45.4985 79.295 41.7185C72.8737 37.8552 67.6123 33.0401 63.4516 27.2614C59.3721 21.5954 56.6654 15.4501 55.5398 8.74567C53.6211 19.0089 48.6094 27.8349 40.4961 35.2244C32.3977 42.5999 22.6125 47.323 11.1658 49.4505ZM55.2855 0C56.3261 0.445791 56.2622 1.04253 56.2677 1.61827C56.3252 7.65761 57.7361 13.496 60.2845 19.0389C62.565 23.9996 65.7672 28.5116 69.823 32.5853C72.9482 35.725 76.4293 38.4279 80.2874 40.7413C85.9081 44.112 92.0781 46.4648 98.7347 47.7334C101.075 48.18 103.402 48.6682 105.844 48.6728C107.562 48.6761 109.285 49.0314 110.999 49.2293C111.032 50.0923 110.47 50.3218 109.776 50.3458C108.646 50.3849 107.512 50.3917 106.382 50.3661C103.297 50.2963 100.372 51.0613 97.406 51.6389C93.8682 52.3277 90.4446 53.3563 87.2454 54.7936C84.0364 56.2357 80.8968 57.8919 78.0175 59.8002C72.8919 63.1971 68.5907 67.3511 65.0135 72.0827C61.667 76.5091 59.4635 81.3944 57.8313 86.4719C57.1584 88.5657 57.0336 90.8044 56.7378 92.9852C56.5084 94.6779 56.4246 96.3859 56.216 98.0812C56.1784 98.3884 55.8517 98.6674 55.6659 98.9487C54.5085 98.5724 54.7535 97.7736 54.7505 97.0984C54.7349 93.6706 54.1412 90.2914 53.2474 86.9887C51.9313 82.1264 49.8171 77.5213 46.8459 73.2328C44.9403 70.4825 42.6628 68.0279 40.2608 65.6127C37.9545 63.2932 35.354 61.2817 32.6029 59.4753C29.6593 57.5419 26.4769 55.9015 23.083 54.5416C19.2537 53.0074 15.2948 51.9698 11.2492 51.1289C9.39183 50.7432 7.47145 50.5611 5.56755 50.4018C4.20407 50.2876 2.81984 50.365 1.44491 50.3564C0.648477 50.3511 -0.00153293 50.1893 -0.000242222 49.2166C1.74071 49.0217 3.4635 48.7448 5.19938 48.6506C10.8514 48.343 16.1987 47.0199 21.4369 45.165C25.0458 43.8874 28.3292 42.1181 31.6211 40.347C32.6436 39.7968 33.5602 39.0776 34.4721 38.3813C38.2579 35.4902 41.7542 32.3878 44.6636 28.7317C47.1371 25.6228 49.2551 22.354 50.8086 18.8557C52.1446 15.8452 53.3934 12.7713 53.839 9.48551C54.2114 6.73529 54.8039 4.01211 54.7704 1.22359C54.7662 0.851036 55.0764 0.475089 55.2855 0Z" fill="#D3C9B2"/>
</svg>
